<svg width="184" height="184" viewBox="0 0 184 184" fill="none" xmlns="http://www.w3.org/2000/svg">
<rect width="184" height="184" rx="32" fill="#EE0033"/>
<mask id="mask0_807_3031" style="mask-type:alpha" maskUnits="userSpaceOnUse" x="0" y="0" width="184" height="184">
<rect width="184" height="184" rx="32" fill="#EE0033"/>
</mask>
<g mask="url(#mask0_807_3031)">
<path d="M33.9044 52.7682C38.463 42.9504 46.7282 35.3503 56.885 31.6366L110.62 12.0787C120.788 8.39493 132.004 8.90417 141.807 13.4948C151.61 18.0856 159.198 26.3825 162.903 36.5638L166.805 47.2848C170.504 57.4611 170.018 68.6866 165.455 78.4946C160.892 88.3026 152.626 95.8908 142.472 99.5921L115.61 109.369C100.802 113.511 87.8693 122.619 78.9734 135.171C70.1833 147.573 65.8616 162.595 66.7044 177.778L32.5723 84.0005C28.8666 73.8192 29.3458 62.5862 33.9044 52.7682Z" stroke="white" stroke-width="0.8"/>
</g>
<path d="M87.424 61.6V126H70.864V99.136H42.62V126H26.06V61.6H42.62V86.256H70.864V61.6H87.424ZM97.5756 126V71.536C97.5756 64.912 100.826 61.6 107.328 61.6H141.736C148.114 61.6 152.561 63.348 155.076 66.844C157.652 70.34 158.94 75.6453 158.94 82.76C158.94 97.5413 154.064 104.932 144.312 104.932H139.712V105.392L160.228 126H139.896L125.36 109.256C125.114 108.949 124.624 108.428 123.888 107.692C123.152 106.895 122.6 106.281 122.232 105.852C121.864 105.423 121.434 104.871 120.944 104.196C120.453 103.521 120.085 102.847 119.84 102.172C119.656 101.497 119.564 100.823 119.564 100.148V98.676C119.564 96.468 120.33 94.9653 121.864 94.168C123.397 93.3093 125.789 92.88 129.04 92.88H134.468C137.412 92.88 139.405 92.144 140.448 90.672C141.49 89.2 142.012 86.7467 142.012 83.312C142.012 80 141.429 77.7 140.264 76.412C139.098 75.124 136.952 74.48 133.824 74.48H118.46C116.865 74.48 115.73 74.8173 115.056 75.492C114.442 76.1053 114.136 77.2093 114.136 78.804V126H97.5756Z" fill="white"/>
</svg>
