<svg width="6" height="12" viewBox="0 0 6 12" fill="none" xmlns="http://www.w3.org/2000/svg">
<path d="M0.542027 12C0.473821 12.0004 0.406233 11.9871 0.343217 11.961C0.280202 11.9349 0.223023 11.8965 0.175027 11.848C0.0784171 11.7503 0.0242343 11.6185 0.0242343 11.481C0.0242343 11.3436 0.0784171 11.2118 0.175027 11.114L4.69203 6.60204C4.85031 6.44246 4.93913 6.2268 4.93913 6.00204C4.93913 5.77728 4.85031 5.56162 4.69203 5.40204L0.175027 0.88504C0.0776924 0.787705 0.0230103 0.655691 0.0230103 0.51804C0.0230103 0.380388 0.0776924 0.248374 0.175027 0.15104C0.272361 0.0537054 0.404375 -0.00097656 0.542027 -0.000976562C0.679679 -0.000976565 0.811692 0.0537054 0.909027 0.15104L5.42203 4.66404C5.59778 4.83929 5.73719 5.04753 5.83226 5.27679C5.92733 5.50606 5.97619 5.75184 5.97603 6.00004C5.97774 6.24846 5.9296 6.49471 5.83444 6.72419C5.73928 6.95367 5.59904 7.16173 5.42203 7.33604L0.909027 11.848C0.810227 11.9432 0.679147 11.9974 0.542027 12Z" fill="#707070"/>
</svg>
