<svg width="19" height="17" viewBox="0 0 19 17" fill="none" xmlns="http://www.w3.org/2000/svg">
<path d="M13.7493 11.6654L17.916 15.832M17.916 11.6654L13.7493 15.832M12.916 1.07433C14.1376 1.56882 14.9993 2.76646 14.9993 4.16536C14.9993 5.56427 14.1376 6.76191 12.916 7.2564M9.99935 10.832H6.66602C5.11288 10.832 4.33631 10.832 3.72374 11.0858C2.90698 11.4241 2.25806 12.073 1.91975 12.8898C1.66602 13.5023 1.66602 14.2789 1.66602 15.832M11.2493 4.16536C11.2493 6.00631 9.75696 7.4987 7.91602 7.4987C6.07507 7.4987 4.58268 6.00631 4.58268 4.16536C4.58268 2.32442 6.07507 0.832031 7.91602 0.832031C9.75696 0.832031 11.2493 2.32442 11.2493 4.16536Z" stroke="white" style="stroke:white;stroke-opacity:1;" stroke-width="1.5" stroke-linecap="round" stroke-linejoin="round"/>
</svg>
