<svg width="500" height="400" viewBox="0 0 500 400" fill="none" xmlns="http://www.w3.org/2000/svg">
<path fill-rule="evenodd" clip-rule="evenodd" d="M414 130C421.732 130 428 136.268 428 144C428 151.732 421.732 158 414 158H334C341.732 158 348 164.268 348 172C348 179.732 341.732 186 334 186H378C385.732 186 392 192.268 392 200C392 207.732 385.732 214 378 214H357.652C347.903 214 340 220.268 340 228C340 233.155 344 237.821 352 242C359.732 242 366 248.268 366 256C366 263.732 359.732 270 352 270H186C178.268 270 172 263.732 172 256C172 248.268 178.268 242 186 242H108C100.268 242 94 235.732 94 228C94 220.268 100.268 214 108 214H188C195.732 214 202 207.732 202 200C202 192.268 195.732 186 188 186H138C130.268 186 124 179.732 124 172C124 164.268 130.268 158 138 158H218C210.268 158 204 151.732 204 144C204 136.268 210.268 130 218 130H414ZM414 186C421.732 186 428 192.268 428 200C428 207.732 421.732 214 414 214C406.268 214 400 207.732 400 200C400 192.268 406.268 186 414 186Z" fill="#F8F8F9" style="fill:#F8F8F9;fill:color(display-p3 0.9725 0.9725 0.9765);fill-opacity:1;"/>
<path fill-rule="evenodd" clip-rule="evenodd" d="M307.345 128.001L325.948 263.687L327.62 277.299C328.158 281.685 325.04 285.676 320.654 286.215L203.534 300.595C199.149 301.134 195.157 298.015 194.619 293.63L176.587 146.775C176.318 144.582 177.877 142.586 180.07 142.317C180.084 142.316 180.098 142.314 180.111 142.312L189.828 141.222M197.685 140.341L206.859 139.312L197.685 140.341Z" fill="white" style="fill:white;fill-opacity:1;"/>
<path d="M308.583 127.832C308.489 127.148 307.859 126.669 307.175 126.763C306.491 126.857 306.012 127.487 306.106 128.171L307.345 128.001L308.583 127.832ZM325.948 263.687L327.189 263.534C327.188 263.529 327.188 263.523 327.187 263.517L325.948 263.687ZM327.62 277.299L328.861 277.147L327.62 277.299ZM320.654 286.215L320.807 287.455L320.654 286.215ZM203.534 300.595L203.686 301.836L203.534 300.595ZM194.619 293.63L195.859 293.478L194.619 293.63ZM180.111 142.312L180.251 143.555L180.111 142.312ZM189.967 142.465C190.654 142.388 191.147 141.769 191.07 141.083C190.993 140.397 190.375 139.903 189.689 139.98L189.828 141.222L189.967 142.465ZM197.546 139.099C196.86 139.176 196.366 139.794 196.443 140.48C196.52 141.166 197.138 141.66 197.825 141.583L197.685 140.341L197.546 139.099ZM206.999 140.554C207.685 140.477 208.178 139.859 208.101 139.173C208.025 138.487 207.406 137.993 206.72 138.07L206.859 139.312L206.999 140.554ZM307.345 128.001L306.106 128.171L324.71 263.857L325.948 263.687L327.187 263.517L308.583 127.832L307.345 128.001ZM325.948 263.687L324.708 263.839L326.379 277.452L327.62 277.299L328.861 277.147L327.189 263.534L325.948 263.687ZM327.62 277.299L326.379 277.452C326.833 281.152 324.202 284.52 320.502 284.974L320.654 286.215L320.807 287.455C325.877 286.833 329.483 282.218 328.861 277.147L327.62 277.299ZM320.654 286.215L320.502 284.974L203.382 299.355L203.534 300.595L203.686 301.836L320.807 287.455L320.654 286.215ZM203.534 300.595L203.382 299.355C199.681 299.809 196.314 297.178 195.859 293.478L194.619 293.63L193.378 293.782C194.001 298.853 198.616 302.459 203.686 301.836L203.534 300.595ZM194.619 293.63L195.859 293.478L177.828 146.623L176.587 146.775L175.346 146.927L193.378 293.782L194.619 293.63ZM176.587 146.775L177.828 146.623C177.643 145.115 178.715 143.743 180.222 143.558L180.07 142.317L179.917 141.077C177.04 141.43 174.993 144.049 175.346 146.927L176.587 146.775ZM180.07 142.317L180.222 143.558C180.232 143.557 180.241 143.556 180.251 143.555L180.111 142.312L179.972 141.07C179.954 141.072 179.936 141.074 179.917 141.077L180.07 142.317ZM180.111 142.312L180.251 143.555L189.967 142.465L189.828 141.222L189.689 139.98L179.972 141.07L180.111 142.312ZM197.685 140.341L197.825 141.583L206.999 140.554L206.859 139.312L206.72 138.07L197.546 139.099L197.685 140.341Z" fill="#898E99" style="fill:#898E99;fill:color(display-p3 0.5373 0.5569 0.6000);fill-opacity:1;"/>
<path fill-rule="evenodd" clip-rule="evenodd" d="M302.279 136.537L319.119 259.505L320.633 271.841C321.121 275.815 318.333 279.428 314.406 279.91L209.522 292.788C205.595 293.27 202.016 290.44 201.528 286.465L184.984 151.727C184.849 150.631 185.629 149.633 186.725 149.498L201.686 147.662" fill="#F0F1F2" style="fill:#F0F1F2;fill:color(display-p3 0.9412 0.9451 0.9490);fill-opacity:1;"/>
<path d="M217.344 101.25H314.113C314.842 101.25 315.542 101.539 316.058 102.055L345.288 131.268C345.804 131.783 346.094 132.483 346.094 133.212V264C346.094 265.519 344.863 266.75 343.344 266.75H217.344C215.825 266.75 214.594 265.519 214.594 264V104C214.594 102.481 215.825 101.25 217.344 101.25Z" fill="white" stroke="#898E99" style="fill:white;fill-opacity:1;stroke:#898E99;stroke:color(display-p3 0.5373 0.5569 0.6000);stroke-opacity:1;" stroke-width="2.5"/>
<path d="M313.344 104.805V127.999C313.344 131.313 316.03 133.999 319.344 133.999H335.211" stroke="#898E99" style="stroke:#898E99;stroke:color(display-p3 0.5373 0.5569 0.6000);stroke-opacity:1;" stroke-width="2.5" stroke-linecap="round" stroke-linejoin="round"/>
<path d="M236 236H288M236 134H288H236ZM236 158H322H236ZM236 184H322H236ZM236 210H322H236Z" stroke="#BBBEC5" style="stroke:#BBBEC5;stroke:color(display-p3 0.7333 0.7451 0.7725);stroke-opacity:1;" stroke-width="2.5" stroke-linecap="round" stroke-linejoin="round"/>
</svg>
