<svg width="20" height="21" viewBox="0 0 20 21" fill="none" xmlns="http://www.w3.org/2000/svg">
<path d="M9.16669 9.50065H5.16669C4.23327 9.50065 3.76656 9.50065 3.41004 9.68231C3.09643 9.8421 2.84147 10.0971 2.68168 10.4107C2.50002 10.7672 2.50002 11.2339 2.50002 12.1673V17.834M17.5 17.834V5.50065C17.5 4.56723 17.5 4.10052 17.3184 3.744C17.1586 3.4304 16.9036 3.17543 16.59 3.01564C16.2335 2.83398 15.7668 2.83398 14.8334 2.83398H11.8334C10.8999 2.83398 10.4332 2.83398 10.0767 3.01564C9.7631 3.17543 9.50813 3.4304 9.34834 3.744C9.16669 4.10052 9.16669 4.56723 9.16669 5.50065V17.834M18.3334 17.834H1.66669M12.0834 6.16732H14.5834M12.0834 9.50065H14.5834M12.0834 12.834H14.5834" stroke="#EE0033" stroke-width="1.5" stroke-linecap="round" stroke-linejoin="round"/>
</svg>
