<svg width="20" height="20" viewBox="0 0 20 20" fill="none" xmlns="http://www.w3.org/2000/svg">
<path d="M13.3333 1.66797V5.0013M6.66663 1.66797V5.0013" stroke="#4C515B" stroke-width="1.5" stroke-linecap="round" stroke-linejoin="round"/>
<path d="M17.5 10.4154V9.9987C17.5 6.856 17.5 5.28466 16.5237 4.30834C15.5474 3.33203 13.976 3.33203 10.8333 3.33203H9.16667C6.02397 3.33203 4.45262 3.33203 3.47631 4.30834C2.5 5.28466 2.5 6.856 2.5 9.9987V11.6654C2.5 14.808 2.5 16.3794 3.47631 17.3557C4.45262 18.332 6.02397 18.332 9.16667 18.332" stroke="#4C515B" stroke-width="1.5" stroke-linecap="round" stroke-linejoin="round"/>
<path d="M2.5 8.33203H17.5" stroke="#4C515B" stroke-width="1.5" stroke-linecap="round" stroke-linejoin="round"/>
<path d="M14.5833 17.0846C15.3577 17.0846 16.0335 16.6621 16.3925 16.035M14.5833 17.0846C13.8089 17.0846 13.1331 16.6621 12.7741 16.035M14.5833 17.0846V18.3346M16.3925 16.035L17.5 16.6678M16.3925 16.035C16.567 15.7304 16.6666 15.3775 16.6666 15.0013C16.6666 14.6251 16.5669 14.2721 16.3924 13.9674M12.7741 16.035L11.6666 16.6678M12.7741 16.035C12.5996 15.7304 12.5 15.3775 12.5 15.0013C12.5 14.6251 12.5997 14.2721 12.7742 13.9674M14.5833 12.918C15.3576 12.918 16.0333 13.3404 16.3924 13.9674M14.5833 12.918C13.809 12.918 13.1333 13.3404 12.7742 13.9674M14.5833 12.918V11.668M16.3924 13.9674L17.5 13.3345M12.7742 13.9674L11.6666 13.3345" stroke="#4C515B" stroke-width="1.5" stroke-linecap="round" stroke-linejoin="round"/>
</svg>
