<svg width="20" height="21" viewBox="0 0 20 21" fill="none" xmlns="http://www.w3.org/2000/svg">
<path d="M17.5 9.91667V7.66667C17.5 6.26654 17.5 5.56647 17.2275 5.03169C16.9878 4.56129 16.6054 4.17883 16.135 3.93915C15.6002 3.66667 14.9001 3.66667 13.5 3.66667H6.5C5.09987 3.66667 4.3998 3.66667 3.86502 3.93915C3.39462 4.17883 3.01217 4.56129 2.77248 5.03169C2.5 5.56647 2.5 6.26654 2.5 7.66667V14.6667C2.5 16.0668 2.5 16.7669 2.77248 17.3016C3.01217 17.772 3.39462 18.1545 3.86502 18.3942C4.3998 18.6667 5.09987 18.6667 6.5 18.6667H10.4167M17.5 8.66667H2.5M13.3333 2V5.33333M6.66667 2V5.33333M15 17.8333V12.8333M12.5 15.3333H17.5" stroke="#EE0033" stroke-width="1.5" stroke-linecap="round" stroke-linejoin="round"/>
</svg>
