<svg width="21" height="21" viewBox="0 0 21 21" fill="none" xmlns="http://www.w3.org/2000/svg">
<path d="M18.0625 8.83464H3.0625M13.8958 2.16797V5.5013M7.22917 2.16797V5.5013M8.0625 13.8346L9.72917 15.5013L13.4792 11.7513M7.0625 18.8346H14.0625C15.4626 18.8346 16.1627 18.8346 16.6975 18.5622C17.1679 18.3225 17.5503 17.94 17.79 17.4696C18.0625 16.9348 18.0625 16.2348 18.0625 14.8346V7.83464C18.0625 6.4345 18.0625 5.73444 17.79 5.19966C17.5503 4.72925 17.1679 4.3468 16.6975 4.10712C16.1627 3.83464 15.4626 3.83464 14.0625 3.83464H7.0625C5.66237 3.83464 4.9623 3.83464 4.42752 4.10712C3.95712 4.3468 3.57467 4.72925 3.33498 5.19966C3.0625 5.73444 3.0625 6.4345 3.0625 7.83464V14.8346C3.0625 16.2348 3.0625 16.9348 3.33498 17.4696C3.57467 17.94 3.95712 18.3225 4.42752 18.5622C4.9623 18.8346 5.66237 18.8346 7.0625 18.8346Z" stroke="#EE0033" stroke-width="1.5" stroke-linecap="round" stroke-linejoin="round"/>
</svg>
