<svg width="18" height="20" viewBox="0 0 18 20" fill="none" xmlns="http://www.w3.org/2000/svg">
<g opacity="0.3">
<path opacity="0.3" d="M12.3714 4.104C11.9067 4.10356 11.4612 3.92237 11.1326 3.60023C10.8041 3.27809 10.6193 2.8413 10.6188 2.38573V1.54872e-07H2.7881C2.48767 -0.000109302 2.19014 0.0578014 1.91254 0.170444C1.63494 0.283086 1.38271 0.44825 1.17023 0.656487C0.957747 0.864725 0.789193 1.11196 0.674195 1.38408C0.559196 1.65619 0.5 1.94785 0.5 2.2424V15.7602C0.5 16.0547 0.559196 16.3464 0.674195 16.6185C0.789193 16.8906 0.957747 17.1379 1.17023 17.3461C1.38271 17.5543 1.63494 17.7195 1.91254 17.8321C2.19014 17.9448 2.48767 18.0027 2.7881 18.0026H12.1887C12.4891 18.0026 12.7865 17.9446 13.064 17.8319C13.3415 17.7192 13.5936 17.554 13.806 17.3458C14.0184 17.1376 14.1869 16.8904 14.3018 16.6183C14.4168 16.3462 14.4759 16.0546 14.4759 15.7602V4.104H12.3714Z" fill="#1677FF"/>
</g>
<path d="M14.4758 4.104H12.3713C11.9066 4.10356 11.4611 3.92237 11.1325 3.60023C10.8039 3.27809 10.6191 2.8413 10.6187 2.38572V0L14.4758 4.104Z" fill="#1677FF"/>
<path d="M11.6007 6.9757H2.8257C2.74139 6.9757 2.66054 6.94286 2.60092 6.88442C2.54131 6.82597 2.50781 6.74671 2.50781 6.66405C2.5077 6.62305 2.51585 6.58244 2.53177 6.54453C2.5477 6.50662 2.57109 6.47216 2.60062 6.44313C2.63015 6.4141 2.66524 6.39108 2.70386 6.37537C2.74248 6.35965 2.78388 6.35156 2.8257 6.35156H11.6007C11.6853 6.35156 11.7663 6.38449 11.8261 6.44309C11.8859 6.50169 11.9195 6.58117 11.9195 6.66405C11.9192 6.74678 11.8856 6.82606 11.8258 6.88448C11.7661 6.9429 11.6851 6.9757 11.6007 6.9757Z" fill="#1677FF"/>
<path d="M11.6007 8.84289H2.8257C2.74139 8.84289 2.66054 8.81005 2.60092 8.75161C2.54131 8.69316 2.50781 8.61389 2.50781 8.53124C2.5077 8.49024 2.51585 8.44962 2.53177 8.41172C2.5477 8.37381 2.57109 8.33935 2.60062 8.31032C2.63015 8.28129 2.66524 8.25827 2.70386 8.24255C2.74248 8.22684 2.78388 8.21875 2.8257 8.21875H11.6007C11.6853 8.21875 11.7663 8.25166 11.8261 8.31026C11.8859 8.36886 11.9195 8.44836 11.9195 8.53124C11.9192 8.61397 11.8856 8.69322 11.8258 8.75165C11.7661 8.81007 11.6851 8.84289 11.6007 8.84289Z" fill="#1677FF"/>
<path d="M11.6007 10.7062H2.8257C2.78388 10.7062 2.74248 10.6981 2.70386 10.6824C2.66524 10.6667 2.63015 10.6436 2.60062 10.6146C2.57109 10.5856 2.5477 10.5511 2.53177 10.5132C2.51585 10.4753 2.5077 10.4347 2.50781 10.3937C2.50781 10.311 2.54131 10.2318 2.60092 10.1733C2.66054 10.1149 2.74139 10.082 2.8257 10.082H11.6007C11.6851 10.082 11.7661 10.1148 11.8258 10.1733C11.8856 10.2317 11.9192 10.311 11.9195 10.3937C11.9195 10.4766 11.8859 10.556 11.8261 10.6146C11.7663 10.6732 11.6853 10.7062 11.6007 10.7062Z" fill="#1677FF"/>
<path d="M8.13967 12.5695H2.8257C2.78388 12.5695 2.74248 12.5614 2.70386 12.5456C2.66524 12.5299 2.63015 12.5069 2.60062 12.4779C2.57109 12.4488 2.5477 12.4144 2.53177 12.3765C2.51585 12.3386 2.5077 12.298 2.50781 12.257C2.50781 12.1743 2.54131 12.095 2.60092 12.0366C2.66054 11.9781 2.74139 11.9453 2.8257 11.9453H8.13967C8.22398 11.9453 8.30484 11.9781 8.36445 12.0366C8.42407 12.095 8.45755 12.1743 8.45755 12.257C8.45767 12.298 8.44953 12.3386 8.43361 12.3765C8.41768 12.4144 8.39428 12.4488 8.36476 12.4779C8.33523 12.5069 8.30014 12.5299 8.26152 12.5456C8.2229 12.5614 8.18149 12.5695 8.13967 12.5695Z" fill="#1677FF"/>
<path d="M16.1351 14.2188H5.50712C4.75323 14.2188 4.14209 14.8179 4.14209 15.557V18.6636C4.14209 19.4027 4.75323 20.0018 5.50712 20.0018H16.1351C16.889 20.0018 17.5001 19.4027 17.5001 18.6636V15.557C17.5001 14.8179 16.889 14.2188 16.1351 14.2188Z" fill="#1677FF"/>
<path d="M6.9784 17.7812V18.3871H6.33838V17.7812H6.9784Z" fill="white"/>
<path d="M9.43831 17.7809C9.33189 17.9704 9.17114 18.1251 8.97594 18.2259C8.75626 18.3361 8.51203 18.3908 8.26536 18.3851H7.2998V15.8794H8.26536C8.51221 15.8734 8.75679 15.9269 8.97763 16.0352C9.17205 16.1341 9.33232 16.2872 9.43831 16.4752C9.54821 16.6752 9.60354 16.8997 9.59896 17.1268C9.60333 17.3547 9.54802 17.5799 9.43831 17.7809ZM8.77365 17.6551C8.84274 17.5856 8.89627 17.5027 8.93081 17.4117C8.96535 17.3207 8.98014 17.2237 8.97424 17.1268C8.98018 17.03 8.9654 16.9331 8.93086 16.8423C8.89631 16.7514 8.84276 16.6687 8.77365 16.5993C8.61879 16.4662 8.41653 16.3985 8.21097 16.411H7.91943V17.8426H8.21181C8.41692 17.8547 8.61869 17.7874 8.77365 17.6551Z" fill="white"/>
<path d="M11.8207 16.0066C12.0152 16.1148 12.1759 16.273 12.2856 16.464C12.4006 16.6658 12.4592 16.8937 12.4556 17.1248C12.4595 17.3565 12.4009 17.585 12.2856 17.7873C12.1755 17.9791 12.0142 18.1378 11.819 18.2465C11.6203 18.3577 11.395 18.4152 11.1662 18.4131C10.9374 18.4151 10.7122 18.3576 10.5134 18.2465C10.3183 18.138 10.1572 17.9792 10.0477 17.7873C9.93204 17.5852 9.87337 17.3565 9.87767 17.1248C9.87326 16.8937 9.93195 16.6655 10.0477 16.464C10.1577 16.273 10.3187 16.1148 10.5134 16.0066C10.7122 15.8954 10.9374 15.8379 11.1662 15.8399C11.3956 15.8378 11.6214 15.8953 11.8207 16.0066ZM10.6817 16.5982C10.5563 16.7452 10.4926 16.9335 10.5032 17.1248C10.4925 17.3155 10.5564 17.5029 10.6817 17.649C10.7428 17.7141 10.8177 17.7652 10.9011 17.7989C10.9845 17.8326 11.0744 17.848 11.1645 17.844C11.2543 17.8477 11.3439 17.8323 11.427 17.7986C11.5101 17.7649 11.5847 17.7138 11.6456 17.649C11.7716 17.5032 11.836 17.3157 11.8258 17.1248C11.836 16.9343 11.7722 16.747 11.6473 16.6007C11.5862 16.5356 11.5114 16.4844 11.428 16.4507C11.3446 16.417 11.2546 16.4016 11.1645 16.4057C11.0746 16.4016 10.9849 16.4168 10.9016 16.45C10.8182 16.4832 10.7432 16.5338 10.6817 16.5982Z" fill="white"/>
<path d="M14.7778 16.1067C14.9934 16.2786 15.14 16.5198 15.1918 16.7875H14.5373C14.4931 16.6765 14.4158 16.5813 14.3154 16.5142C14.2097 16.4466 14.0855 16.4121 13.9593 16.415C13.876 16.4124 13.7931 16.4286 13.7172 16.4624C13.6413 16.4962 13.5744 16.5467 13.5216 16.61C13.4032 16.7584 13.3429 16.9434 13.3516 17.1316C13.3429 17.3191 13.4033 17.5033 13.5216 17.6508C13.5748 17.7134 13.6419 17.7633 13.7178 17.7966C13.7936 17.83 13.8762 17.8459 13.9593 17.8433C14.0856 17.8466 14.2098 17.812 14.3154 17.7441C14.4152 17.6782 14.4925 17.5844 14.5373 17.475H15.1918C15.1392 17.7419 14.9927 17.9822 14.7778 18.1541C14.5466 18.3272 14.261 18.4156 13.9704 18.4041C13.7413 18.4088 13.5153 18.353 13.3159 18.2424C13.1293 18.1361 12.9779 17.9793 12.8799 17.7908C12.7745 17.584 12.722 17.3552 12.7269 17.1241C12.7221 16.8931 12.7746 16.6643 12.8799 16.4575C12.9779 16.269 13.1293 16.1122 13.3159 16.0059C13.5153 15.8953 13.7413 15.8394 13.9704 15.8442C14.2625 15.8366 14.5482 15.9295 14.7778 16.1067Z" fill="white"/>
</svg>
