<svg width="39" height="42" viewBox="0 0 39 42" fill="none" xmlns="http://www.w3.org/2000/svg">
<path d="M21.5 19H9.5M13.5 27H9.5M25.5 11H9.5M33.5 18V10.6C33.5 7.23969 33.5 5.55953 32.846 4.27606C32.2708 3.14708 31.3529 2.2292 30.2239 1.65396C28.9405 1 27.2603 1 23.9 1H11.1C7.73969 1 6.05953 1 4.77606 1.65396C3.64708 2.2292 2.7292 3.14708 2.15396 4.27606C1.5 5.55953 1.5 7.23969 1.5 10.6V31.4C1.5 34.7603 1.5 36.4405 2.15396 37.7239C2.7292 38.8529 3.64708 39.7708 4.77606 40.346C6.05953 41 7.73969 41 11.1 41H16.5M37.5 41L34.5 38M36.5 33C36.5 36.866 33.366 40 29.5 40C25.634 40 22.5 36.866 22.5 33C22.5 29.134 25.634 26 29.5 26C33.366 26 36.5 29.134 36.5 33Z" stroke="black" stroke-width="2" stroke-linecap="round" stroke-linejoin="round"/>
</svg>
