<svg width="20" height="21" viewBox="0 0 20 21" fill="none" xmlns="http://www.w3.org/2000/svg">
<path d="M10 11.4102C10.4603 11.4102 10.8334 11.0371 10.8334 10.5768C10.8334 10.1166 10.4603 9.74349 10 9.74349C9.53978 9.74349 9.16669 10.1166 9.16669 10.5768C9.16669 11.0371 9.53978 11.4102 10 11.4102Z" stroke="#4C515B" stroke-width="1.5" stroke-linecap="round" stroke-linejoin="round"/>
<path d="M10 5.57682C10.4603 5.57682 10.8334 5.20373 10.8334 4.74349C10.8334 4.28325 10.4603 3.91016 10 3.91016C9.53978 3.91016 9.16669 4.28325 9.16669 4.74349C9.16669 5.20373 9.53978 5.57682 10 5.57682Z" stroke="#4C515B" stroke-width="1.5" stroke-linecap="round" stroke-linejoin="round"/>
<path d="M10 17.2435C10.4603 17.2435 10.8334 16.8704 10.8334 16.4102C10.8334 15.9499 10.4603 15.5768 10 15.5768C9.53978 15.5768 9.16669 15.9499 9.16669 16.4102C9.16669 16.8704 9.53978 17.2435 10 17.2435Z" stroke="#4C515B" stroke-width="1.5" stroke-linecap="round" stroke-linejoin="round"/>
</svg>
