<svg width="280" height="36" viewBox="0 0 280 36" fill="none" xmlns="http://www.w3.org/2000/svg">
<g clip-path="url(#clip0_31_1953)">
<path d="M57.7391 0H34.2609C30.8031 0 28 2.80309 28 6.26087V29.7391C28 33.1969 30.8031 36 34.2609 36H57.7391C61.1969 36 64 33.1969 64 29.7391V6.26087C64 2.80309 61.1969 0 57.7391 0Z" fill="#EE0033"/>
<mask id="mask0_31_1953" style="mask-type:alpha" maskUnits="userSpaceOnUse" x="28" y="0" width="36" height="36">
<path d="M57.7391 0H34.2609C30.8031 0 28 2.80309 28 6.26087V29.7391C28 33.1969 30.8031 36 34.2609 36H57.7391C61.1969 36 64 33.1969 64 29.7391V6.26087C64 2.80309 61.1969 0 57.7391 0Z" fill="#EE0033"/>
</mask>
<g mask="url(#mask0_31_1953)">
<path d="M34.6336 10.3242C35.5255 8.40336 37.1426 6.91638 39.1298 6.18979L49.6432 2.36325C51.6326 1.64251 53.827 1.74214 55.745 2.64031C57.6629 3.53851 59.1476 5.16181 59.8724 7.15381L60.6359 9.2514C61.3596 11.2424 61.2645 13.4387 60.3718 15.3577C59.479 17.2766 57.8617 18.7613 55.8751 19.4854L50.6195 21.3983C47.7223 22.2087 45.1919 23.9907 43.4514 26.4465C41.7316 28.873 40.8861 31.8121 41.051 34.7827L34.373 16.4349C33.6479 14.4429 33.7417 12.2451 34.6336 10.3242Z" stroke="white" stroke-opacity="0.7" stroke-width="0.5"/>
</g>
<path d="M36.7448 20.3631H33.3366C32.5061 20.3631 32.0908 19.9555 32.0908 19.1404V13.5983C32.0908 12.7755 32.5061 12.3641 33.3366 12.3641H36.639C37.3049 12.3641 37.8651 12.4593 38.3196 12.6498C38.774 12.8403 39.1187 13.1221 39.3538 13.4954C39.5967 13.8687 39.7651 14.2839 39.8591 14.741C39.9531 15.1904 40.0002 15.7313 40.0002 16.3636C40.0002 16.9883 39.9531 17.5292 39.8591 17.9863C39.7651 18.4433 39.6006 18.8585 39.3655 19.2318C39.1383 19.6051 38.8053 19.887 38.3666 20.0774C37.9278 20.2679 37.3872 20.3631 36.7448 20.3631ZM34.2062 14.5353V18.192C34.2062 18.4053 34.2454 18.5538 34.3238 18.6376C34.41 18.7214 34.5667 18.7633 34.7939 18.7633H35.2757C36.2394 18.7633 36.9054 18.5995 37.2736 18.2719C37.6497 17.9444 37.8377 17.3083 37.8377 16.3636C37.8377 15.419 37.6497 14.7829 37.2736 14.4553C36.9054 14.1277 36.2394 13.9639 35.2757 13.9639H34.7939C34.5667 13.9639 34.41 14.0058 34.3238 14.0896C34.2454 14.1734 34.2062 14.322 34.2062 14.5353Z" fill="white"/>
<path d="M43.1697 20.3631H41.0543V13.5983C41.0543 12.7755 41.4695 12.3641 42.3 12.3641H46.6719C47.1185 12.3641 47.4907 12.4289 47.7884 12.5584C48.0861 12.6803 48.3133 12.8707 48.47 13.1297C48.6267 13.3811 48.7364 13.663 48.7991 13.9753C48.8618 14.2801 48.8931 14.6457 48.8931 15.0723C48.8931 15.9637 48.7325 16.6417 48.4113 17.1064C48.0979 17.5711 47.5181 17.8034 46.6719 17.8034H43.1697V20.3631ZM43.1697 16.2036H45.5789C46.0099 16.2036 46.3076 16.1198 46.4721 15.9522C46.6445 15.777 46.7307 15.4837 46.7307 15.0723C46.7307 14.6686 46.6445 14.3829 46.4721 14.2153C46.3076 14.0477 46.0099 13.9639 45.5789 13.9639H43.7221C43.5184 13.9639 43.3734 14.0058 43.2872 14.0896C43.2089 14.1658 43.1697 14.3029 43.1697 14.501V16.2036Z" fill="white"/>
<path d="M58.3767 14.8438L56.6844 19.4375C56.5512 19.7956 56.3945 20.0546 56.2143 20.2146C56.0341 20.3745 55.7324 20.4545 55.3093 20.4545C54.8784 20.4545 54.5729 20.3745 54.3927 20.2146C54.2125 20.0546 54.0558 19.7956 53.9226 19.4375L52.242 14.8438C52.1715 14.661 52.1127 14.5696 52.0657 14.5696C51.9873 14.5696 51.9482 14.6534 51.9482 14.821L52.0069 20.3631H49.8915V13.5068C49.8915 13.2554 49.9464 13.0421 50.056 12.8669C50.1657 12.6917 50.3107 12.566 50.4909 12.4898C50.6789 12.406 50.8552 12.3489 51.0197 12.3184C51.1921 12.2879 51.3723 12.2727 51.5603 12.2727C52.4614 12.2727 53.0568 12.665 53.3467 13.4497L55.0743 18.0663C55.1526 18.2872 55.231 18.3976 55.3093 18.3976C55.3877 18.3976 55.466 18.2872 55.5444 18.0663L57.272 13.4497C57.5619 12.665 58.1534 12.2727 59.0466 12.2727C60.167 12.2727 60.7272 12.6841 60.7272 13.5068V20.3631H58.6118L58.6823 14.821C58.6823 14.6534 58.6392 14.5696 58.553 14.5696C58.506 14.5696 58.4472 14.661 58.3767 14.8438Z" fill="white"/>
</g>
<path d="M78.14 15.5202H72.1235C70.7078 15.5202 70 14.7915 70 13.3342V3.13324C70 1.67595 70.7078 0.947308 72.1235 0.947308H77.7653C78.7229 0.947308 79.5556 1.09304 80.2635 1.38449C80.9713 1.66207 81.5264 2.02986 81.9289 2.48787C82.3453 2.93199 82.6715 3.48715 82.9074 4.15334C83.1572 4.81953 83.3168 5.47184 83.3862 6.11027C83.4695 6.73482 83.5111 7.44264 83.5111 8.23374C83.5111 9.01096 83.4695 9.71878 83.3862 10.3572C83.3168 10.9956 83.1642 11.648 82.9282 12.3141C82.7062 12.9803 82.4008 13.5424 82.0122 14.0004C81.6375 14.4446 81.117 14.8123 80.4508 15.1038C79.7985 15.3814 79.0282 15.5202 78.14 15.5202ZM76.8076 3.13324H73.7889C73.3726 3.13324 73.095 3.20263 72.9562 3.34142C72.8174 3.48021 72.748 3.75779 72.748 4.17416V12.2933C72.748 12.7097 72.8174 12.9873 72.9562 13.1261C73.095 13.2648 73.3726 13.3342 73.7889 13.3342H76.8076C77.6126 13.3342 78.2788 13.2163 78.8062 12.9803C79.3336 12.7305 79.7291 12.3558 79.9928 11.8561C80.2565 11.3565 80.4369 10.8291 80.5341 10.2739C80.6313 9.71878 80.6798 9.03872 80.6798 8.23374C80.6798 7.42876 80.6313 6.7487 80.5341 6.19354C80.4369 5.63838 80.2565 5.11098 79.9928 4.61134C79.7291 4.1117 79.3336 3.74391 78.8062 3.50797C78.2788 3.25815 77.6126 3.13324 76.8076 3.13324Z" fill="black"/>
<path d="M88.3415 15.5202H85.5935V0.947308H88.3415V15.5202Z" fill="black"/>
<path d="M103.559 3.13324H97.8961C96.1196 3.13324 94.8983 3.49409 94.2321 4.21579C93.5798 4.92362 93.2536 6.26293 93.2536 8.23374C93.2536 10.2045 93.5798 11.5508 94.2321 12.2725C94.8983 12.9803 96.1196 13.3342 97.8961 13.3342H100.103C100.519 13.3342 100.797 13.2648 100.936 13.1261C101.074 12.9873 101.144 12.7097 101.144 12.2933V8.37947H103.892V13.3342C103.892 14.7915 103.184 15.5202 101.768 15.5202H96.6054C95.3979 15.5202 94.3778 15.3467 93.5451 14.9997C92.7124 14.6389 92.0739 14.1184 91.6298 13.4383C91.1857 12.7444 90.8734 11.981 90.693 11.1483C90.5126 10.3156 90.4223 9.34405 90.4223 8.23374C90.4223 7.12343 90.5126 6.1519 90.693 5.31917C90.8734 4.48643 91.1857 3.73003 91.6298 3.04996C92.0739 2.35602 92.7124 1.83556 93.5451 1.48859C94.3778 1.12773 95.3979 0.947308 96.6054 0.947308H103.559V3.13324Z" fill="black"/>
<path d="M108.713 15.5202H105.965V0.947308H108.713V15.5202Z" fill="black"/>
<path d="M118.392 15.5202H115.644V3.13324H109.961V0.947308H124.096V3.13324H118.392V15.5202Z" fill="black"/>
<path d="M121.887 15.5202L127.383 2.42541C127.647 1.80086 127.945 1.37062 128.278 1.13467C128.625 0.898732 129.125 0.780762 129.777 0.780762C130.402 0.780762 130.887 0.905672 131.234 1.15549C131.595 1.39143 131.907 1.81474 132.171 2.42541L137.667 15.5202H134.773L133.275 11.8353H126.259L124.781 15.5202H121.887ZM129.361 3.94515L126.967 9.87839H132.567L130.193 3.94515C130.041 3.54267 129.902 3.34142 129.777 3.34142C129.652 3.34142 129.513 3.54267 129.361 3.94515Z" fill="black"/>
<path d="M150.191 15.5202H140.698C139.282 15.5202 138.575 14.7915 138.575 13.3342V0.947308H141.323V12.2933C141.323 12.7097 141.392 12.9873 141.531 13.1261C141.67 13.2648 141.947 13.3342 142.364 13.3342H150.191V15.5202Z" fill="black"/>
<path d="M156.303 15.5202V3.13324C156.303 1.67595 157.011 0.947308 158.426 0.947308H165.671C166.42 0.947308 167.045 1.07222 167.545 1.32204C168.058 1.55798 168.44 1.91189 168.69 2.38378C168.953 2.84178 169.134 3.32754 169.231 3.84106C169.328 4.3407 169.377 4.9375 169.377 5.63144C169.377 6.32539 169.328 6.92912 169.231 7.44264C169.134 7.95616 168.953 8.44886 168.69 8.92075C168.44 9.37875 168.058 9.73266 167.545 9.98248C167.045 10.2323 166.42 10.3572 165.671 10.3572H159.051V15.5202H156.303ZM159.051 8.17129H164.318C165.206 8.17129 165.796 7.97698 166.087 7.58837C166.393 7.18588 166.545 6.53357 166.545 5.63144C166.545 4.72931 166.393 4.09088 166.087 3.71615C165.796 3.32754 165.206 3.13324 164.318 3.13324H160.092C159.675 3.13324 159.398 3.20263 159.259 3.34142C159.12 3.48021 159.051 3.75779 159.051 4.17416V8.17129Z" fill="black"/>
<path d="M173.994 15.5202H171.246V3.13324C171.246 1.67595 171.953 0.947308 173.369 0.947308H180.718C182.023 0.947308 182.952 1.33592 183.508 2.11314C184.077 2.87648 184.361 4.02149 184.361 5.54817C184.361 8.79584 183.237 10.4197 180.989 10.4197H179.531V10.5238L184.653 15.5202H181.114L176.409 10.7944C175.951 10.3086 175.722 9.89921 175.722 9.56612V9.23302C175.722 8.92769 175.826 8.68481 176.034 8.50438C176.256 8.32395 176.561 8.23374 176.95 8.23374H179.781C180.489 8.23374 180.954 8.01862 181.176 7.58837C181.412 7.15812 181.53 6.47806 181.53 5.54817C181.53 4.65992 181.391 4.03537 181.114 3.67452C180.85 3.31366 180.302 3.13324 179.469 3.13324H175.035C174.618 3.13324 174.341 3.20263 174.202 3.34142C174.063 3.48021 173.994 3.75779 173.994 4.17416V15.5202Z" fill="black"/>
<path d="M193.592 0.780762C195.007 0.780762 196.166 0.891793 197.068 1.11386C197.97 1.33592 198.734 1.73147 199.358 2.3005C199.983 2.86954 200.427 3.63288 200.691 4.59052C200.954 5.53429 201.086 6.7487 201.086 8.23374C201.086 9.71878 200.954 10.9401 200.691 11.8978C200.427 12.8415 199.983 13.5979 199.358 14.167C198.734 14.736 197.97 15.1316 197.068 15.3536C196.166 15.5757 195.007 15.6867 193.592 15.6867C192.19 15.6867 191.038 15.5757 190.136 15.3536C189.234 15.1316 188.47 14.736 187.846 14.167C187.221 13.5979 186.777 12.8415 186.513 11.8978C186.25 10.9401 186.118 9.71878 186.118 8.23374C186.118 6.7487 186.25 5.53429 186.513 4.59052C186.777 3.63288 187.221 2.86954 187.846 2.3005C188.47 1.73147 189.234 1.33592 190.136 1.11386C191.038 0.891793 192.19 0.780762 193.592 0.780762ZM189.907 4.04925C189.268 4.77095 188.949 6.16578 188.949 8.23374C188.949 10.3017 189.268 11.6965 189.907 12.4182C190.559 13.1399 191.787 13.5008 193.592 13.5008C195.396 13.5008 196.624 13.1399 197.276 12.4182C197.929 11.6965 198.255 10.3017 198.255 8.23374C198.255 6.16578 197.929 4.77095 197.276 4.04925C196.624 3.32754 195.396 2.96669 193.592 2.96669C191.787 2.96669 190.559 3.32754 189.907 4.04925Z" fill="black"/>
<path d="M215.01 15.5202H208.931C207.724 15.5202 206.704 15.3467 205.871 14.9997C205.038 14.6389 204.4 14.1184 203.956 13.4383C203.511 12.7444 203.199 11.981 203.019 11.1483C202.838 10.3156 202.748 9.34405 202.748 8.23374C202.748 7.12343 202.838 6.1519 203.019 5.31917C203.199 4.48643 203.511 3.73003 203.956 3.04996C204.4 2.35602 205.038 1.83556 205.871 1.48859C206.704 1.12773 207.724 0.947308 208.931 0.947308H214.781V3.13324H210.222C208.445 3.13324 207.224 3.49409 206.558 4.21579C205.906 4.92362 205.579 6.26293 205.579 8.23374C205.579 10.2045 205.906 11.5508 206.558 12.2725C207.224 12.9803 208.445 13.3342 210.222 13.3342H215.01V15.5202Z" fill="black"/>
<path d="M228.567 13.3342V15.5202H219.011C217.595 15.5202 216.887 14.7915 216.887 13.3342V3.13324C216.887 1.67595 217.595 0.947308 219.011 0.947308H228.483V3.13324H220.676C220.26 3.13324 219.982 3.20263 219.844 3.34142C219.705 3.48021 219.635 3.75779 219.635 4.17416V6.98464H228.275V9.17057H219.635V12.2933C219.635 12.7097 219.705 12.9873 219.844 13.1261C219.982 13.2648 220.26 13.3342 220.676 13.3342H228.567Z" fill="black"/>
<path d="M230.011 15.5202V13.3342H238.088C239.004 13.3342 239.462 12.8068 239.462 11.752C239.462 10.9471 238.99 10.3989 238.047 10.1074L232.301 8.2962C231.385 8.00474 230.739 7.56061 230.365 6.96382C230.004 6.35315 229.823 5.52041 229.823 4.46561C229.823 3.38306 230.101 2.5295 230.656 1.90495C231.211 1.26652 232.044 0.947308 233.154 0.947308H241.544V3.13324H233.883C233.508 3.13324 233.21 3.25121 232.988 3.48715C232.766 3.72309 232.655 4.09088 232.655 4.59052C232.655 4.99301 232.731 5.32611 232.884 5.58981C233.05 5.85351 233.397 6.06863 233.925 6.23518L239.254 7.92146C240.35 8.26844 241.128 8.7195 241.586 9.27466C242.058 9.82982 242.294 10.6626 242.294 11.7729C242.294 12.9109 242.037 13.82 241.523 14.5001C241.024 15.1801 240.239 15.5202 239.171 15.5202H230.011Z" fill="black"/>
<path d="M243.327 15.5202V13.3342H251.405C252.321 13.3342 252.779 12.8068 252.779 11.752C252.779 10.9471 252.307 10.3989 251.363 10.1074L245.617 8.2962C244.701 8.00474 244.056 7.56061 243.681 6.96382C243.32 6.35315 243.14 5.52041 243.14 4.46561C243.14 3.38306 243.417 2.5295 243.973 1.90495C244.528 1.26652 245.36 0.947308 246.471 0.947308H254.861V3.13324H247.199C246.825 3.13324 246.526 3.25121 246.304 3.48715C246.082 3.72309 245.971 4.09088 245.971 4.59052C245.971 4.99301 246.047 5.32611 246.2 5.58981C246.367 5.85351 246.714 6.06863 247.241 6.23518L252.57 7.92146C253.667 8.26844 254.444 8.7195 254.902 9.27466C255.374 9.82982 255.61 10.6626 255.61 11.7729C255.61 12.9109 255.353 13.82 254.84 14.5001C254.34 15.1801 253.556 15.5202 252.487 15.5202H243.327Z" fill="black"/>
<path d="M84.8851 23.748L81.1587 33.4702C80.9088 34.0948 80.6451 34.5458 80.3676 34.8234C80.09 35.0871 79.6597 35.2189 79.0768 35.2189C78.4939 35.2189 78.0637 35.0871 77.7861 34.8234C77.5085 34.5458 77.2448 34.0948 76.995 33.4702L73.2685 23.748C73.1436 23.4288 73.0256 23.2692 72.9146 23.2692C72.7619 23.2692 72.6856 23.4149 72.6856 23.7064L72.748 35.0524H70V22.2283C70 20.9514 70.7842 20.313 72.3525 20.313C73.1019 20.313 73.6571 20.4726 74.0179 20.7918C74.3788 21.111 74.6772 21.576 74.9131 22.1866L78.6813 31.9088C78.8478 32.2697 78.9797 32.4501 79.0768 32.4501C79.174 32.4501 79.3058 32.2697 79.4724 31.9088L83.2405 22.1866C83.4764 21.576 83.7748 21.111 84.1357 20.7918C84.4965 20.4726 85.0517 20.313 85.8011 20.313C87.3695 20.313 88.1536 20.9514 88.1536 22.2283V35.0524H85.4056L85.4889 23.7064C85.4889 23.4149 85.4056 23.2692 85.2391 23.2692C85.128 23.2692 85.01 23.4288 84.8851 23.748Z" fill="black"/>
<path d="M89.0735 35.0524L94.5696 21.9576C94.8333 21.3331 95.1317 20.9028 95.4648 20.6669C95.8118 20.431 96.3114 20.313 96.9637 20.313C97.5883 20.313 98.074 20.4379 98.421 20.6877C98.7818 20.9237 99.0941 21.347 99.3578 21.9576L104.854 35.0524H101.96L100.461 31.3675H93.4454L91.9673 35.0524H89.0735ZM96.5473 23.4774L94.1532 29.4106H99.7534L97.3801 23.4774C97.2274 23.0749 97.0886 22.8736 96.9637 22.8736C96.8388 22.8736 96.7 23.0749 96.5473 23.4774Z" fill="black"/>
<path d="M119.71 20.4795V33.1579C119.71 33.8519 119.508 34.3723 119.106 34.7193C118.703 35.0524 118.183 35.2189 117.544 35.2189C116.49 35.2189 115.705 34.8095 115.192 33.9907L109.051 24.2893C108.884 24.0534 108.773 23.9354 108.717 23.9354C108.523 23.9354 108.426 24.0742 108.426 24.3518V35.0524H105.761V22.2907C105.761 21.6662 105.956 21.1804 106.344 20.8334C106.747 20.4865 107.295 20.313 107.989 20.313C109.057 20.313 109.828 20.6947 110.3 21.458L116.483 31.2218C116.497 31.2496 116.517 31.2912 116.545 31.3467C116.573 31.3884 116.594 31.4231 116.608 31.4508C116.635 31.4786 116.663 31.5063 116.691 31.5341C116.733 31.5619 116.774 31.5757 116.816 31.5757C116.968 31.5757 117.045 31.4578 117.045 31.2218V20.4795H119.71Z" fill="black"/>
<path d="M120.626 35.0524L126.122 21.9576C126.386 21.3331 126.685 20.9028 127.018 20.6669C127.365 20.431 127.864 20.313 128.517 20.313C129.141 20.313 129.627 20.4379 129.974 20.6877C130.335 20.9237 130.647 21.347 130.911 21.9576L136.407 35.0524H133.513L132.014 31.3675H124.998L123.52 35.0524H120.626ZM128.1 23.4774L125.706 29.4106H131.306L128.933 23.4774C128.78 23.0749 128.641 22.8736 128.517 22.8736C128.392 22.8736 128.253 23.0749 128.1 23.4774Z" fill="black"/>
<path d="M150.034 22.6655H144.372C142.595 22.6655 141.374 23.0263 140.708 23.748C140.055 24.4558 139.729 25.7952 139.729 27.766C139.729 29.7368 140.055 31.083 140.708 31.8047C141.374 32.5126 142.595 32.8665 144.372 32.8665H146.578C146.995 32.8665 147.272 32.7971 147.411 32.6583C147.55 32.5195 147.619 32.2419 147.619 31.8256V27.9117H150.367V32.8665C150.367 34.3238 149.659 35.0524 148.244 35.0524H143.081C141.873 35.0524 140.853 34.8789 140.02 34.5319C139.188 34.1711 138.549 33.6506 138.105 32.9706C137.661 32.2766 137.349 31.5133 137.168 30.6805C136.988 29.8478 136.898 28.8763 136.898 27.766C136.898 26.6557 136.988 25.6841 137.168 24.8514C137.349 24.0187 137.661 23.2623 138.105 22.5822C138.549 21.8882 139.188 21.3678 140.02 21.0208C140.853 20.66 141.873 20.4795 143.081 20.4795H150.034V22.6655Z" fill="black"/>
<path d="M164.119 32.8665V35.0524H154.563C153.148 35.0524 152.44 34.3238 152.44 32.8665V22.6655C152.44 21.2082 153.148 20.4795 154.563 20.4795H164.036V22.6655H156.229C155.813 22.6655 155.535 22.7349 155.396 22.8736C155.257 23.0124 155.188 23.29 155.188 23.7064V26.5169H163.828V28.7028H155.188V31.8256C155.188 32.2419 155.257 32.5195 155.396 32.6583C155.535 32.7971 155.813 32.8665 156.229 32.8665H164.119Z" fill="black"/>
<path d="M180.886 23.748L177.159 33.4702C176.909 34.0948 176.645 34.5458 176.368 34.8234C176.09 35.0871 175.66 35.2189 175.077 35.2189C174.494 35.2189 174.064 35.0871 173.786 34.8234C173.509 34.5458 173.245 34.0948 172.995 33.4702L169.269 23.748C169.144 23.4288 169.026 23.2692 168.915 23.2692C168.762 23.2692 168.686 23.4149 168.686 23.7064L168.748 35.0524H166V22.2283C166 20.9514 166.785 20.313 168.353 20.313C169.102 20.313 169.657 20.4726 170.018 20.7918C170.379 21.111 170.678 21.576 170.913 22.1866L174.682 31.9088C174.848 32.2697 174.98 32.4501 175.077 32.4501C175.174 32.4501 175.306 32.2697 175.473 31.9088L179.241 22.1866C179.477 21.576 179.775 21.111 180.136 20.7918C180.497 20.4726 181.052 20.313 181.802 20.313C183.37 20.313 184.154 20.9514 184.154 22.2283V35.0524H181.406L181.489 23.7064C181.489 23.4149 181.406 23.2692 181.239 23.2692C181.128 23.2692 181.01 23.4288 180.886 23.748Z" fill="black"/>
<path d="M198.335 32.8665V35.0524H188.78C187.364 35.0524 186.656 34.3238 186.656 32.8665V22.6655C186.656 21.2082 187.364 20.4795 188.78 20.4795H198.252V22.6655H190.445C190.029 22.6655 189.751 22.7349 189.612 22.8736C189.474 23.0124 189.404 23.29 189.404 23.7064V26.5169H198.044V28.7028H189.404V31.8256C189.404 32.2419 189.474 32.5195 189.612 32.6583C189.751 32.7971 190.029 32.8665 190.445 32.8665H198.335Z" fill="black"/>
<path d="M214.165 20.4795V33.1579C214.165 33.8519 213.964 34.3723 213.561 34.7193C213.159 35.0524 212.638 35.2189 212 35.2189C210.945 35.2189 210.161 34.8095 209.647 33.9907L203.506 24.2893C203.339 24.0534 203.228 23.9354 203.173 23.9354C202.978 23.9354 202.881 24.0742 202.881 24.3518V35.0524H200.217V22.2907C200.217 21.6662 200.411 21.1804 200.799 20.8334C201.202 20.4865 201.75 20.313 202.444 20.313C203.513 20.313 204.283 20.6947 204.755 21.458L210.938 31.2218C210.952 31.2496 210.973 31.2912 211 31.3467C211.028 31.3884 211.049 31.4231 211.063 31.4508C211.091 31.4786 211.118 31.5063 211.146 31.5341C211.188 31.5619 211.229 31.5757 211.271 31.5757C211.424 31.5757 211.5 31.4578 211.5 31.2218V20.4795H214.165Z" fill="black"/>
<path d="M223.846 35.0524H221.098V22.6655H215.415V20.4795H229.55V22.6655H223.846V35.0524Z" fill="black"/>
<defs>
<clipPath id="clip0_31_1953">
<rect width="36" height="36" fill="white" transform="translate(28)"/>
</clipPath>
</defs>
</svg>
