<svg width="36" height="36" viewBox="0 0 36 36" fill="none" xmlns="http://www.w3.org/2000/svg">
<g clip-path="url(#clip0_31_1967)">
<path d="M29.7391 0H6.26087C2.80309 0 0 2.80309 0 6.26087V29.7391C0 33.1969 2.80309 36 6.26087 36H29.7391C33.1969 36 36 33.1969 36 29.7391V6.26087C36 2.80309 33.1969 0 29.7391 0Z" fill="#EE0033"/>
<mask id="mask0_31_1967" style="mask-type:alpha" maskUnits="userSpaceOnUse" x="0" y="0" width="36" height="36">
<path d="M29.7391 0H6.26087C2.80309 0 0 2.80309 0 6.26087V29.7391C0 33.1969 2.80309 36 6.26087 36H29.7391C33.1969 36 36 33.1969 36 29.7391V6.26087C36 2.80309 33.1969 0 29.7391 0Z" fill="#EE0033"/>
</mask>
<g mask="url(#mask0_31_1967)">
<path d="M6.63359 10.3242C7.52549 8.40336 9.14259 6.91638 11.1298 6.18979L21.6432 2.36325C23.6326 1.64251 25.827 1.74214 27.745 2.64031C29.6629 3.53851 31.1476 5.16181 31.8724 7.15381L32.6359 9.2514C33.3596 11.2424 33.2645 13.4387 32.3718 15.3577C31.479 17.2766 29.8617 18.7613 27.8751 19.4854L22.6195 21.3983C19.7223 22.2087 17.1919 23.9907 15.4514 26.4465C13.7316 28.873 12.8861 31.8121 13.051 34.7827L6.37296 16.4349C5.64793 14.4429 5.74169 12.2451 6.63359 10.3242Z" stroke="white" stroke-opacity="0.7" stroke-width="0.5"/>
</g>
<path d="M8.74475 20.3631H5.33657C4.50607 20.3631 4.09082 19.9555 4.09082 19.1404V13.5983C4.09082 12.7755 4.50607 12.3641 5.33657 12.3641H8.63898C9.30495 12.3641 9.86515 12.4593 10.3196 12.6498C10.774 12.8403 11.1187 13.1221 11.3538 13.4954C11.5967 13.8687 11.7651 14.2839 11.8591 14.741C11.9531 15.1904 12.0002 15.7313 12.0002 16.3636C12.0002 16.9883 11.9531 17.5292 11.8591 17.9863C11.7651 18.4433 11.6006 18.8585 11.3655 19.2318C11.1383 19.6051 10.8053 19.887 10.3666 20.0774C9.92782 20.2679 9.38722 20.3631 8.74475 20.3631ZM6.20624 14.5353V18.192C6.20624 18.4053 6.24542 18.5538 6.32377 18.6376C6.40995 18.7214 6.56665 18.7633 6.79386 18.7633H7.27571C8.2394 18.7633 8.90537 18.5995 9.27361 18.2719C9.64969 17.9444 9.83772 17.3083 9.83772 16.3636C9.83772 15.419 9.64969 14.7829 9.27361 14.4553C8.90537 14.1277 8.2394 13.9639 7.27571 13.9639H6.79386C6.56665 13.9639 6.40995 14.0058 6.32377 14.0896C6.24542 14.1734 6.20624 14.322 6.20624 14.5353Z" fill="white"/>
<path d="M15.1697 20.3631H13.0543V13.5983C13.0543 12.7755 13.4695 12.3641 14.3 12.3641H18.6719C19.1185 12.3641 19.4907 12.4289 19.7884 12.5584C20.0861 12.6803 20.3133 12.8707 20.47 13.1297C20.6267 13.3811 20.7364 13.663 20.7991 13.9753C20.8618 14.2801 20.8931 14.6457 20.8931 15.0723C20.8931 15.9637 20.7325 16.6417 20.4113 17.1064C20.0979 17.5711 19.5181 17.8034 18.6719 17.8034H15.1697V20.3631ZM15.1697 16.2036H17.5789C18.0099 16.2036 18.3076 16.1198 18.4721 15.9522C18.6445 15.777 18.7307 15.4837 18.7307 15.0723C18.7307 14.6686 18.6445 14.3829 18.4721 14.2153C18.3076 14.0477 18.0099 13.9639 17.5789 13.9639H15.7221C15.5184 13.9639 15.3734 14.0058 15.2872 14.0896C15.2089 14.1658 15.1697 14.3029 15.1697 14.501V16.2036Z" fill="white"/>
<path d="M30.3767 14.8438L28.6844 19.4375C28.5512 19.7956 28.3945 20.0546 28.2143 20.2146C28.0341 20.3745 27.7324 20.4545 27.3093 20.4545C26.8784 20.4545 26.5729 20.3745 26.3927 20.2146C26.2125 20.0546 26.0558 19.7956 25.9226 19.4375L24.242 14.8438C24.1715 14.661 24.1127 14.5696 24.0657 14.5696C23.9873 14.5696 23.9482 14.6534 23.9482 14.821L24.0069 20.3631H21.8915V13.5068C21.8915 13.2554 21.9464 13.0421 22.056 12.8669C22.1657 12.6917 22.3107 12.566 22.4909 12.4898C22.6789 12.406 22.8552 12.3489 23.0197 12.3184C23.1921 12.2879 23.3723 12.2727 23.5603 12.2727C24.4614 12.2727 25.0568 12.665 25.3467 13.4497L27.0743 18.0663C27.1526 18.2872 27.231 18.3976 27.3093 18.3976C27.3877 18.3976 27.466 18.2872 27.5444 18.0663L29.272 13.4497C29.5619 12.665 30.1534 12.2727 31.0466 12.2727C32.167 12.2727 32.7272 12.6841 32.7272 13.5068V20.3631H30.6118L30.6823 14.821C30.6823 14.6534 30.6392 14.5696 30.553 14.5696C30.506 14.5696 30.4472 14.661 30.3767 14.8438Z" fill="white"/>
</g>
<defs>
<clipPath id="clip0_31_1967">
<rect width="36" height="36" fill="white"/>
</clipPath>
</defs>
</svg>
