<svg width="20" height="20" viewBox="0 0 20 20" fill="none" xmlns="http://www.w3.org/2000/svg">
<path d="M2.39668 15.0973C2.43497 14.7527 2.45411 14.5804 2.50624 14.4194C2.55249 14.2765 2.61784 14.1405 2.70051 14.0152C2.79369 13.8739 2.91627 13.7513 3.16142 13.5061L14.1667 2.5009C15.0871 1.58043 16.5795 1.58043 17.5 2.5009C18.4205 3.42138 18.4205 4.91376 17.5 5.83424L6.49475 16.8395C6.2496 17.0846 6.12702 17.2072 5.98572 17.3004C5.86035 17.383 5.72439 17.4484 5.58152 17.4946C5.42048 17.5468 5.24819 17.5659 4.90362 17.6042L2.08331 17.9176L2.39668 15.0973Z" stroke="black" stroke-width="1.5" stroke-linecap="round" stroke-linejoin="round"/>
</svg>
