<svg width="280" height="225" viewBox="0 0 280 225" fill="none" xmlns="http://www.w3.org/2000/svg">
<path fill-rule="evenodd" clip-rule="evenodd" d="M231.84 73.125C236.17 73.125 239.68 76.6508 239.68 81C239.68 85.3492 236.17 88.875 231.84 88.875H187.04C191.37 88.875 194.88 92.4008 194.88 96.75C194.88 101.099 191.37 104.625 187.04 104.625H211.68C216.01 104.625 219.52 108.151 219.52 112.5C219.52 116.849 216.01 120.375 211.68 120.375H200.285C194.826 120.375 190.4 123.901 190.4 128.25C190.4 131.149 192.64 133.774 197.12 136.125C201.45 136.125 204.96 139.651 204.96 144C204.96 148.349 201.45 151.875 197.12 151.875H104.16C99.83 151.875 96.3199 148.349 96.3199 144C96.3199 139.651 99.83 136.125 104.16 136.125H60.4799C56.15 136.125 52.6399 132.599 52.6399 128.25C52.6399 123.901 56.15 120.375 60.4799 120.375H105.28C109.61 120.375 113.12 116.849 113.12 112.5C113.12 108.151 109.61 104.625 105.28 104.625H77.2799C72.95 104.625 69.4399 101.099 69.4399 96.75C69.4399 92.4008 72.95 88.875 77.2799 88.875H122.08C117.75 88.875 114.24 85.3492 114.24 81C114.24 76.6508 117.75 73.125 122.08 73.125H231.84ZM231.84 104.625C236.17 104.625 239.68 108.151 239.68 112.5C239.68 116.849 236.17 120.375 231.84 120.375C227.51 120.375 224 116.849 224 112.5C224 108.151 227.51 104.625 231.84 104.625Z" fill="#FDE6EB"/>
<path fill-rule="evenodd" clip-rule="evenodd" d="M172.153 72.0012L182.536 148.293L183.469 155.947C183.769 158.413 182.021 160.658 179.563 160.962L113.94 169.083C111.483 169.387 109.247 167.635 108.947 165.169L98.8872 82.5962C98.737 81.3633 99.6112 80.2406 100.84 80.0886C100.848 80.0876 100.855 80.0867 100.863 80.0858L106.307 79.4701M110.703 78.9429L115.841 78.3622L110.703 78.9429Z" fill="white"/>
<path d="M173.391 71.8312C173.298 71.1472 172.668 70.6688 171.984 70.7626C171.3 70.8564 170.821 71.487 170.914 72.1711L172.153 72.0012L173.391 71.8312ZM182.536 148.293L183.777 148.14C183.776 148.135 183.775 148.129 183.775 148.123L182.536 148.293ZM183.469 155.947L184.709 155.794L183.469 155.947ZM179.563 160.962L179.716 162.203L179.563 160.962ZM113.94 169.083L114.092 170.324L113.94 169.083ZM108.947 165.169L110.188 165.016L108.947 165.169ZM98.8872 82.5962L100.128 82.4437L98.8872 82.5962ZM100.84 80.0886L100.688 78.8479L100.84 80.0886ZM100.863 80.0858L101.002 81.3281L100.863 80.0858ZM106.447 80.7123C107.133 80.6347 107.626 80.0157 107.549 79.3296C107.473 78.6435 106.854 78.1502 106.168 78.2278L106.307 79.4701L106.447 80.7123ZM110.564 77.7006C109.878 77.7782 109.384 78.3972 109.461 79.0833C109.538 79.7694 110.156 80.2627 110.842 80.1852L110.703 78.9429L110.564 77.7006ZM115.98 79.6045C116.666 79.5269 117.16 78.9079 117.083 78.2218C117.006 77.5357 116.388 77.0424 115.702 77.1199L115.841 78.3622L115.98 79.6045ZM172.153 72.0012L170.914 72.1711L181.298 148.463L182.536 148.293L183.775 148.123L173.391 71.8312L172.153 72.0012ZM182.536 148.293L181.295 148.445L182.228 156.099L183.469 155.947L184.709 155.794L183.777 148.14L182.536 148.293ZM183.469 155.947L182.228 156.099C182.445 157.884 181.18 159.502 179.411 159.721L179.563 160.962L179.716 162.203C182.861 161.813 185.093 158.941 184.709 155.794L183.469 155.947ZM179.563 160.962L179.411 159.721L113.788 167.842L113.94 169.083L114.092 170.324L179.716 162.203L179.563 160.962ZM113.94 169.083L113.788 167.842C112.02 168.061 110.405 166.8 110.188 165.016L108.947 165.169L107.706 165.321C108.09 168.469 110.946 170.713 114.092 170.324L113.94 169.083ZM108.947 165.169L110.188 165.016L100.128 82.4437L98.8872 82.5962L97.6465 82.7487L107.706 165.321L108.947 165.169ZM98.8872 82.5962L100.128 82.4437C100.061 81.8919 100.452 81.3961 100.992 81.3293L100.84 80.0886L100.688 78.8479C98.7705 79.0851 97.4134 80.8347 97.6465 82.7487L98.8872 82.5962ZM100.84 80.0886L100.992 81.3293C100.995 81.3289 100.999 81.3285 101.002 81.3281L100.863 80.0858L100.724 78.8436C100.712 78.8449 100.7 78.8464 100.688 78.8479L100.84 80.0886ZM100.863 80.0858L101.002 81.3281L106.447 80.7123L106.307 79.4701L106.168 78.2278L100.724 78.8436L100.863 80.0858ZM110.703 78.9429L110.842 80.1852L115.98 79.6045L115.841 78.3622L115.702 77.1199L110.564 77.7006L110.703 78.9429Z" fill="#EE0033"/>
<path fill-rule="evenodd" clip-rule="evenodd" d="M169.277 76.8027L178.707 145.972L179.555 152.911C179.828 155.147 178.267 157.179 176.068 157.45L117.333 164.694C115.133 164.965 113.129 163.373 112.856 161.137L103.698 86.2157C103.563 85.1193 104.344 84.1209 105.44 83.9857L112.944 83.0601" fill="#FDE6EB"/>
<path d="M123.472 57.5H175.17C175.901 57.5 176.602 57.7916 177.118 58.3096L192.461 73.7109C192.974 74.2264 193.262 74.9248 193.262 75.6523V146.75C193.262 148.269 192.031 149.5 190.512 149.5H123.472C121.954 149.5 120.722 148.269 120.722 146.75V60.25C120.722 58.7312 121.954 57.5 123.472 57.5Z" fill="white" stroke="#EE0033" stroke-width="2.5"/>
<path d="M175.472 58.9531V71.9999C175.472 73.8639 176.977 75.3749 178.832 75.3749H187.718" stroke="#EE0033" stroke-width="2.5" stroke-linecap="round" stroke-linejoin="round"/>
<path d="M132.16 132.75H161.28M132.16 75.375H161.28H132.16ZM132.16 88.875H180.32H132.16ZM132.16 103.5H180.32H132.16ZM132.16 118.125H180.32H132.16Z" stroke="#F78AA1" stroke-width="2.5" stroke-linecap="round" stroke-linejoin="round"/>
</svg>
