<svg width="368" height="295" viewBox="0 0 368 295" fill="none" xmlns="http://www.w3.org/2000/svg">
<path fill-rule="evenodd" clip-rule="evenodd" d="M304.704 95.875C310.395 95.875 315.008 100.498 315.008 106.2C315.008 111.902 310.395 116.525 304.704 116.525H245.824C251.515 116.525 256.128 121.148 256.128 126.85C256.128 132.552 251.515 137.175 245.824 137.175H278.208C283.899 137.175 288.512 141.798 288.512 147.5C288.512 153.202 283.899 157.825 278.208 157.825H263.232C256.057 157.825 250.24 162.448 250.24 168.15C250.24 171.952 253.184 175.393 259.072 178.475C264.763 178.475 269.376 183.098 269.376 188.8C269.376 194.502 264.763 199.125 259.072 199.125H136.896C131.205 199.125 126.592 194.502 126.592 188.8C126.592 183.098 131.205 178.475 136.896 178.475H79.488C73.7972 178.475 69.184 173.852 69.184 168.15C69.184 162.448 73.7972 157.825 79.488 157.825H138.368C144.059 157.825 148.672 153.202 148.672 147.5C148.672 141.798 144.059 137.175 138.368 137.175H101.568C95.8772 137.175 91.264 132.552 91.264 126.85C91.264 121.148 95.8772 116.525 101.568 116.525H160.448C154.757 116.525 150.144 111.902 150.144 106.2C150.144 100.498 154.757 95.875 160.448 95.875H304.704ZM304.704 137.175C310.395 137.175 315.008 141.798 315.008 147.5C315.008 153.202 310.395 157.825 304.704 157.825C299.013 157.825 294.4 153.202 294.4 147.5C294.4 141.798 299.013 137.175 304.704 137.175Z" fill="#FDE6EB"/>
<path fill-rule="evenodd" clip-rule="evenodd" d="M226.229 94.3989L239.901 194.448L241.129 204.486C241.524 207.719 239.228 210.663 236 211.061L149.777 221.686C146.549 222.083 143.611 219.785 143.215 216.551L129.967 108.265C129.769 106.649 130.917 105.177 132.532 104.978C132.542 104.976 132.552 104.975 132.562 104.974L139.715 104.169M145.496 103.5L152.248 102.74L145.496 103.5Z" fill="white"/>
<path d="M227.468 94.2291C227.374 93.5451 226.744 93.0667 226.06 93.1605C225.376 93.2543 224.897 93.8848 224.991 94.5688L227.468 94.2291ZM239.901 194.448L241.141 194.296C241.141 194.29 241.14 194.284 241.139 194.278L239.901 194.448ZM241.129 204.486L242.37 204.333L241.129 204.486ZM236 211.061L236.152 212.302L236 211.061ZM149.777 221.686L149.929 222.926L149.777 221.686ZM143.215 216.551L144.456 216.399L143.215 216.551ZM129.967 108.265L128.726 108.418L129.967 108.265ZM132.562 104.974L132.701 106.216L132.562 104.974ZM139.855 105.411C140.541 105.334 141.034 104.715 140.958 104.029C140.881 103.343 140.262 102.849 139.576 102.926L139.855 105.411ZM145.356 102.258C144.67 102.335 144.176 102.954 144.253 103.64C144.33 104.326 144.949 104.819 145.635 104.742L145.356 102.258ZM152.387 103.982C153.073 103.905 153.567 103.286 153.49 102.6C153.413 101.914 152.795 101.42 152.109 101.498L152.387 103.982ZM226.229 94.3989L224.991 94.5688L238.662 194.618L239.901 194.448L241.139 194.278L227.468 94.2291L226.229 94.3989ZM239.901 194.448L238.66 194.601L239.888 204.638L241.129 204.486L242.37 204.333L241.141 194.296L239.901 194.448ZM241.129 204.486L239.888 204.638C240.2 207.188 238.389 209.507 235.847 209.82L236 211.061L236.152 212.302C240.067 211.819 242.849 208.25 242.37 204.333L241.129 204.486ZM236 211.061L235.847 209.82L149.625 220.445L149.777 221.686L149.929 222.926L236.152 212.302L236 211.061ZM149.777 221.686L149.625 220.445C147.084 220.758 144.768 218.948 144.456 216.399L143.215 216.551L141.975 216.703C142.454 220.621 146.014 223.409 149.929 222.926L149.777 221.686ZM143.215 216.551L144.456 216.399L131.208 108.113L129.967 108.265L128.726 108.418L141.975 216.703L143.215 216.551ZM129.967 108.265L131.208 108.113C131.093 107.179 131.756 106.333 132.684 106.218L132.532 104.978L132.379 103.737C130.078 104.021 128.445 106.118 128.726 108.418L129.967 108.265ZM132.532 104.978L132.684 106.218C132.69 106.218 132.696 106.217 132.701 106.216L132.562 104.974L132.423 103.732C132.408 103.733 132.394 103.735 132.379 103.737L132.532 104.978ZM132.562 104.974L132.701 106.216L139.855 105.411L139.715 104.169L139.576 102.926L132.423 103.732L132.562 104.974ZM145.496 103.5L145.635 104.742L152.387 103.982L152.248 102.74L152.109 101.498L145.356 102.258L145.496 103.5Z" fill="#EE0033"/>
<path fill-rule="evenodd" clip-rule="evenodd" d="M222.478 100.699L234.872 191.387L235.987 200.485C236.346 203.416 234.294 206.081 231.403 206.436L154.209 215.934C151.318 216.29 148.684 214.202 148.325 211.271L136.212 112.423C136.078 111.326 136.858 110.328 137.954 110.193L148.441 108.903" fill="#FDE6EB"/>
<path d="M161.021 75H230.748C231.478 75 232.178 75.2901 232.694 75.8066L253.591 96.7334C254.106 97.249 254.395 97.9481 254.395 98.6768V193.65C254.395 195.169 253.164 196.4 251.645 196.4H161.021C159.502 196.4 158.271 195.169 158.271 193.65V77.75C158.271 76.2312 159.502 75 161.021 75Z" fill="white" stroke="#EE0033" stroke-width="2.5"/>
<path d="M230.621 77.293V94.3988C230.621 96.8427 232.598 98.8238 235.037 98.8238H246.715" stroke="#EE0033" stroke-width="2.5" stroke-linecap="round" stroke-linejoin="round"/>
<path d="M173.696 174.049H211.968M173.696 98.8242H211.968H173.696ZM173.696 116.524H236.992H173.696ZM173.696 135.699H236.992H173.696ZM173.696 154.874H236.992H173.696Z" stroke="#F78AA1" stroke-width="2.5" stroke-linecap="round" stroke-linejoin="round"/>
</svg>
