<svg width="33" height="43" viewBox="0 0 33 43" fill="none" xmlns="http://www.w3.org/2000/svg">
<path d="M27.9341 9.8495C26.8406 9.84844 25.7923 9.41361 25.0191 8.64048C24.246 7.86735 23.8111 6.81906 23.81 5.72569V0H5.38204C3.95464 0 2.58569 0.567018 1.57637 1.57629C0.567047 2.58556 0 3.95439 0 5.38171V37.8241C0 39.2514 0.567047 40.6203 1.57637 41.6295C2.58569 42.6388 3.95464 43.2058 5.38204 43.2058H27.502C28.9294 43.2058 30.2984 42.6388 31.3077 41.6295C32.317 40.6203 32.8841 39.2514 32.8841 37.8241V9.8495H27.9341Z" fill="white"/>
<path d="M32.8846 9.8495H27.9346C26.8411 9.84844 25.7928 9.41361 25.0196 8.64048C24.2465 7.86735 23.8116 6.81906 23.8105 5.72569V0L32.8846 9.8495Z" fill="#E4E6E9"/>
<path d="M23.7776 30.1658H9.11358C7.84358 30.1658 6.80957 28.9019 6.80957 27.346V16.7085C6.80957 15.1546 7.84358 13.8906 9.11358 13.8906H23.7836C25.0516 13.8906 26.0856 15.1546 26.0856 16.7085V27.346C26.0796 28.9019 25.0456 30.1658 23.7776 30.1658ZM9.11358 15.3305C8.49158 15.3305 7.9876 15.9485 7.9876 16.7085V27.346C7.9876 28.1059 8.49158 28.7239 9.11358 28.7239H23.7836C24.4036 28.7239 24.9076 28.1059 24.9076 27.346V16.7085C24.9076 15.9485 24.4036 15.3305 23.7836 15.3305H9.11358Z" fill="#16B364"/>
<path d="M25.4925 23.7578H7.39453V25.1998H25.4925V23.7578Z" fill="#16B364"/>
<path d="M25.4925 18.8203H7.39453V20.2623H25.4925V18.8203Z" fill="#16B364"/>
<path d="M20.8561 14.6094H19.4141V29.4426H20.8561V14.6094Z" fill="#16B364"/>
<path d="M13.4703 14.6094H12.0283V29.4426H13.4703V14.6094Z" fill="#16B364"/>
</svg>
