<svg width="25" height="26" viewBox="0 0 25 26" fill="none" xmlns="http://www.w3.org/2000/svg">
<path d="M2.0835 5.29167C2.0835 4.70828 2.0835 4.41658 2.19703 4.19376C2.2969 3.99776 2.45625 3.8384 2.65226 3.73853C2.87508 3.625 3.16677 3.625 3.75016 3.625H21.2502C21.8336 3.625 22.1252 3.625 22.3481 3.73853C22.5441 3.8384 22.7034 3.99776 22.8033 4.19376C22.9168 4.41658 22.9168 4.70828 22.9168 5.29167V5.98895C22.9168 6.26895 22.9168 6.40895 22.8826 6.53913C22.8523 6.65449 22.8024 6.76379 22.7351 6.86225C22.6591 6.97337 22.5533 7.06506 22.3417 7.24843L15.6794 13.0224C15.4679 13.2058 15.3621 13.2975 15.2861 13.4086C15.2188 13.507 15.1689 13.6163 15.1385 13.7317C15.1043 13.8619 15.1043 14.0019 15.1043 14.2819V19.7275C15.1043 19.9312 15.1043 20.033 15.0715 20.1211C15.0424 20.1989 14.9952 20.2687 14.9338 20.3245C14.8642 20.3877 14.7696 20.4255 14.5805 20.5012L11.0388 21.9179C10.656 22.071 10.4645 22.1476 10.3109 22.1157C10.1765 22.0877 10.0586 22.0079 9.98272 21.8935C9.896 21.7627 9.896 21.5565 9.896 21.1441V14.2819C9.896 14.0019 9.896 13.8619 9.86178 13.7317C9.83146 13.6163 9.78155 13.507 9.71423 13.4086C9.63827 13.2975 9.53247 13.2058 9.32088 13.0224L2.65861 7.24843C2.44702 7.06506 2.34123 6.97337 2.26526 6.86225C2.19794 6.76379 2.14803 6.65449 2.11771 6.53913C2.0835 6.40895 2.0835 6.26895 2.0835 5.98895V5.29167Z" stroke="#ee0033" stroke-linecap="round" stroke-linejoin="round"/>
</svg>
