<svg width="20" height="20" viewBox="0 0 20 20" fill="none" xmlns="http://www.w3.org/2000/svg">
<path d="M5.74996 9.53639V11.8512M5.74996 9.53639V3.98083C5.74996 3.21377 6.38422 2.59194 7.16663 2.59194C7.94903 2.59194 8.58329 3.21377 8.58329 3.98083M5.74996 9.53639C5.74996 8.76932 5.1157 8.1475 4.33329 8.1475C3.55089 8.1475 2.91663 8.76932 2.91663 9.53639V11.3882C2.91663 15.2235 6.08794 18.3327 9.99996 18.3327C13.912 18.3327 17.0833 15.2235 17.0833 11.3882V6.75861C17.0833 5.99155 16.449 5.36972 15.6666 5.36972C14.8842 5.36972 14.25 5.99155 14.25 6.75861M8.58329 3.98083V9.07342M8.58329 3.98083V3.0549C8.58329 2.28784 9.21756 1.66602 9.99996 1.66602C10.7824 1.66602 11.4166 2.28784 11.4166 3.0549V3.98083M11.4166 3.98083V9.07342M11.4166 3.98083C11.4166 3.21377 12.0509 2.59194 12.8333 2.59194C13.6157 2.59194 14.25 3.21377 14.25 3.98083V6.75861M14.25 6.75861V9.07342" stroke="black" stroke-width="2" stroke-linecap="round" stroke-linejoin="round"/>
</svg>
