<svg width="35" height="30" viewBox="0 0 35 30" fill="none" xmlns="http://www.w3.org/2000/svg">
<path d="M12.1382 12.138C15.4873 12.138 18.212 9.41337 18.212 6.06429C18.212 2.71521 15.4873 0 12.1382 0C8.78913 0 6.06445 2.72467 6.06445 6.07375C6.06445 9.42283 8.78913 12.1475 12.1382 12.1475V12.138Z" fill="#EE0033"/>
<path d="M12.138 14.7869C5.43043 14.7869 0 20.2268 0 26.9249C0 28.6278 1.38126 30.0091 3.08418 30.0091H21.1919C22.8948 30.0091 24.2761 28.6278 24.2761 26.9249C24.2761 20.2173 18.8457 14.7869 12.138 14.7869Z" fill="#EE0033"/>
<path d="M32.8765 2.5542H27.1528C26.3743 2.5542 25.7432 3.18532 25.7432 3.96384V3.9733C25.7432 4.75182 26.3743 5.38294 27.1528 5.38294H32.8765C33.655 5.38294 34.2862 4.75182 34.2862 3.9733V3.96384C34.2862 3.18532 33.655 2.5542 32.8765 2.5542Z" fill="#EE0033"/>
<path d="M23.0748 2.55432H21.5044C20.7258 2.55432 20.0947 3.18544 20.0947 3.96396V3.97342C20.0947 4.75195 20.7258 5.38306 21.5044 5.38306H23.0748C23.8534 5.38306 24.4845 4.75195 24.4845 3.97342V3.96396C24.4845 3.18544 23.8534 2.55432 23.0748 2.55432Z" fill="#EE0033"/>
<path d="M32.8762 9.41333H23.9926C23.2141 9.41333 22.583 10.0444 22.583 10.823V10.8324C22.583 11.611 23.2141 12.2421 23.9926 12.2421H32.8762C33.6547 12.2421 34.2859 11.611 34.2859 10.8324V10.823C34.2859 10.0444 33.6547 9.41333 32.8762 9.41333Z" fill="#EE0033"/>
<path d="M32.8758 16.2628H28.2495C27.471 16.2628 26.8398 16.8939 26.8398 17.6725V17.6819C26.8398 18.4604 27.471 19.0916 28.2495 19.0916H32.8758C33.6543 19.0916 34.2854 18.4604 34.2854 17.6819V17.6725C34.2854 16.8939 33.6543 16.2628 32.8758 16.2628Z" fill="#EE0033"/>
</svg>
