<svg width="20" height="20" viewBox="0 0 20 20" fill="none" xmlns="http://www.w3.org/2000/svg">
<g clip-path="url(#clip0_2240_13428)">
<path d="M6.66675 6.66602V4.33268C6.66675 3.39926 6.66675 2.93255 6.8484 2.57603C7.00819 2.26243 7.26316 2.00746 7.57676 1.84767C7.93328 1.66602 8.39999 1.66602 9.33341 1.66602H15.6667C16.6002 1.66602 17.0669 1.66602 17.4234 1.84767C17.737 2.00746 17.992 2.26243 18.1518 2.57603C18.3334 2.93255 18.3334 3.39926 18.3334 4.33268V10.666C18.3334 11.5994 18.3334 12.0661 18.1518 12.4227C17.992 12.7363 17.737 12.9912 17.4234 13.151C17.0669 13.3327 16.6002 13.3327 15.6667 13.3327H13.3334M4.33341 18.3327H10.6667C11.6002 18.3327 12.0669 18.3327 12.4234 18.151C12.737 17.9912 12.992 17.7363 13.1518 17.4227C13.3334 17.0661 13.3334 16.5994 13.3334 15.666V9.33268C13.3334 8.39926 13.3334 7.93255 13.1518 7.57603C12.992 7.26243 12.737 7.00746 12.4234 6.84767C12.0669 6.66602 11.6002 6.66602 10.6667 6.66602H4.33341C3.39999 6.66602 2.93328 6.66602 2.57676 6.84767C2.26316 7.00746 2.00819 7.26243 1.8484 7.57603C1.66675 7.93255 1.66675 8.39926 1.66675 9.33268V15.666C1.66675 16.5994 1.66675 17.0661 1.8484 17.4227C2.00819 17.7363 2.26316 17.9912 2.57676 18.151C2.93328 18.3327 3.39999 18.3327 4.33341 18.3327Z" stroke="white" stroke-width="1.5" stroke-linecap="round" stroke-linejoin="round"/>
</g>
<defs>
<clipPath id="clip0_2240_13428">
<rect width="20" height="20" fill="white"/>
</clipPath>
</defs>
</svg>
