<svg width="18" height="18" viewBox="0 0 18 18" fill="none" xmlns="http://www.w3.org/2000/svg">
<path d="M14.0007 7.33228L10.6673 3.99895M1.08398 16.9156L3.90429 16.6023C4.24887 16.564 4.42115 16.5448 4.58219 16.4927C4.72506 16.4464 4.86102 16.3811 4.98639 16.2984C5.1277 16.2052 5.25027 16.0827 5.49542 15.8375L16.5007 4.83228C17.4211 3.91181 17.4211 2.41942 16.5007 1.49895C15.5802 0.578476 14.0878 0.578475 13.1673 1.49895L2.16209 12.5042C1.91694 12.7493 1.79436 12.8719 1.70118 13.0132C1.61851 13.1386 1.55316 13.2745 1.50691 13.4174C1.45478 13.5784 1.43564 13.7507 1.39735 14.0953L1.08398 16.9156Z" stroke="#4C515B" style="stroke:#4C515B;stroke:color(display-p3 0.2980 0.3176 0.3569);stroke-opacity:1;" stroke-width="1.5" stroke-linecap="round" stroke-linejoin="round"/>
</svg>
