<svg width="20" height="20" viewBox="0 0 20 20" fill="none" xmlns="http://www.w3.org/2000/svg">
<g clip-path="url(#clip0_2535_7378)">
<path d="M16.6666 8.75033V5.66699C16.6666 4.26686 16.6666 3.5668 16.3942 3.03202C16.1545 2.56161 15.772 2.17916 15.3016 1.93948C14.7668 1.66699 14.0668 1.66699 12.6666 1.66699H7.33331C5.93318 1.66699 5.23312 1.66699 4.69834 1.93948C4.22793 2.17916 3.84548 2.56161 3.6058 3.03202C3.33331 3.5668 3.33331 4.26686 3.33331 5.66699V14.3337C3.33331 15.7338 3.33331 16.4339 3.6058 16.9686C3.84548 17.439 4.22793 17.8215 4.69834 18.0612C5.23312 18.3337 5.93318 18.3337 7.33331 18.3337H9.99998M11.6666 9.16699H6.66665M8.33331 12.5003H6.66665M13.3333 5.83366H6.66665M15 17.5003V12.5003M12.5 15.0003H17.5" stroke="#EE0033" stroke-width="1.5" stroke-linecap="round" stroke-linejoin="round"/>
</g>
<defs>
<clipPath id="clip0_2535_7378">
<rect width="20" height="20" fill="white"/>
</clipPath>
</defs>
</svg>
