<svg width="21" height="21" viewBox="0 0 21 21" fill="none" xmlns="http://www.w3.org/2000/svg">
<path d="M3.85725 5.00536C3.71257 5.00543 3.57112 4.96258 3.45079 4.88224C3.33046 4.8019 3.23664 4.68768 3.1812 4.55401C3.12577 4.42034 3.1112 4.27323 3.13934 4.13128C3.16748 3.98933 3.23707 3.85891 3.33931 3.75652L6.87026 0.21488C7.00737 0.0774777 7.19343 0.000183297 7.38751 3.25584e-07C7.58159 -0.000182646 7.7678 0.0767608 7.90517 0.213904C8.04253 0.351047 8.11981 0.537156 8.11999 0.731289C8.12017 0.925421 8.04325 1.11168 7.90614 1.24908L4.37519 4.79072C4.30727 4.85889 4.22654 4.91295 4.13765 4.94979C4.04876 4.98663 3.95347 5.00551 3.85725 5.00536Z" fill="#EE0033"/>
<path d="M17.1421 5.00536C17.0459 5.00551 16.9506 4.98663 16.8617 4.94979C16.7728 4.91295 16.6921 4.85889 16.6242 4.79072L13.0932 1.24908C13.0254 1.18104 12.9715 1.1003 12.9348 1.01146C12.8981 0.922615 12.8793 0.827413 12.8794 0.731289C12.8795 0.635164 12.8985 0.539998 12.9354 0.451225C12.9722 0.362452 13.0262 0.28181 13.0942 0.213904C13.1622 0.145998 13.243 0.0921565 13.3318 0.0554548C13.4206 0.0187532 13.5158 -9.02743e-05 13.6119 3.25154e-07C13.708 9.09247e-05 13.8031 0.0191138 13.8919 0.0559829C13.9806 0.0928519 14.0612 0.146845 14.1291 0.21488L17.6601 3.75652C17.7623 3.85891 17.8319 3.98933 17.86 4.13128C17.8882 4.27323 17.8736 4.42034 17.8182 4.55401C17.7627 4.68768 17.6689 4.8019 17.5486 4.88224C17.4283 4.96258 17.2868 5.00543 17.1421 5.00536Z" fill="#EE0033"/>
<path d="M2.91138 3.75684H18.0886C19.0289 3.75684 20.9856 3.75684 20.9856 6.4399C21.0266 6.84421 20.98 7.25261 20.849 7.63731C20.7181 8.02202 20.5058 8.37399 20.2267 8.66928C19.7309 9.02288 19.1238 9.18475 18.5178 9.12491H18.0886H2.91138H2.4822C1.87622 9.18475 1.2691 9.02288 0.773297 8.66928C0.494166 8.37399 0.281904 8.02202 0.150955 7.63731C0.0200065 7.25261 -0.0265567 6.84421 0.0144342 6.4399C0.0144342 3.75684 1.97109 3.75684 2.91138 3.75684ZM18.5178 7.65947C18.7811 7.68869 19.0475 7.64832 19.2903 7.54239C19.3449 7.49653 19.5225 7.28287 19.5225 6.43795C19.5225 5.88182 19.4191 5.53058 19.2142 5.39301C18.8591 5.24314 18.4723 5.1838 18.0886 5.22032H2.91138C2.5275 5.18442 2.14072 5.24443 1.78576 5.39497C1.58093 5.53156 1.47754 5.8828 1.47754 6.4399C1.47754 7.28482 1.65506 7.49946 1.70968 7.54434C1.95252 7.65027 2.21889 7.69064 2.4822 7.66142H2.91138H18.0886L18.5178 7.65947Z" fill="#EE0033"/>
<path d="M8.31456 16.6351C8.12054 16.6351 7.93447 16.558 7.79727 16.4208C7.66008 16.2835 7.58301 16.0974 7.58301 15.9033V12.4398C7.58301 12.2457 7.66008 12.0596 7.79727 11.9223C7.93447 11.7851 8.12054 11.708 8.31456 11.708C8.50858 11.708 8.69465 11.7851 8.83184 11.9223C8.96904 12.0596 9.04611 12.2457 9.04611 12.4398V15.9033C9.04611 16.0974 8.96904 16.2835 8.83184 16.4208C8.69465 16.558 8.50858 16.6351 8.31456 16.6351Z" fill="#EE0033"/>
<path d="M12.8019 16.6351C12.6078 16.6351 12.4218 16.558 12.2846 16.4208C12.1474 16.2835 12.0703 16.0974 12.0703 15.9033V12.4398C12.0703 12.2457 12.1474 12.0596 12.2846 11.9223C12.4218 11.7851 12.6078 11.708 12.8019 11.708C12.9959 11.708 13.182 11.7851 13.3191 11.9223C13.4563 12.0596 13.5334 12.2457 13.5334 12.4398V15.9033C13.5334 16.0974 13.4563 16.2835 13.3191 16.4208C13.182 16.558 12.9959 16.6351 12.8019 16.6351Z" fill="#EE0033"/>
<path d="M13.3193 20.9772H7.43764C3.95156 20.9772 3.16148 18.898 2.86301 17.0862L1.48769 8.65558C1.46088 8.46612 1.50933 8.27369 1.62266 8.11953C1.73599 7.96537 1.90518 7.86174 2.09397 7.83087C2.28277 7.79999 2.47614 7.84431 2.63266 7.95433C2.78917 8.06436 2.89637 8.23133 2.93129 8.41947L4.3066 16.8492C4.59142 18.577 5.17471 19.5137 7.43764 19.5137H13.3193C15.8261 19.5137 16.1109 18.6356 16.4338 16.9467L18.0724 8.39996C18.0898 8.30488 18.1259 8.2142 18.1785 8.13313C18.2311 8.05206 18.2992 7.98223 18.379 7.92765C18.4587 7.87307 18.5485 7.83483 18.6431 7.81515C18.7376 7.79546 18.8352 7.79471 18.9301 7.81295C19.025 7.83118 19.1153 7.86804 19.1959 7.92139C19.2765 7.97474 19.3457 8.04352 19.3995 8.12377C19.4533 8.20402 19.4908 8.29415 19.5096 8.38894C19.5284 8.48374 19.5283 8.58132 19.5092 8.67607L17.8705 17.2228C17.7661 18.1889 17.384 19.1039 16.7703 19.8571C16.3044 20.2733 15.7569 20.5878 15.1627 20.7806C14.5686 20.9735 13.9408 21.0404 13.3193 20.9772Z" fill="#EE0033"/>
</svg>
