<svg width="24" height="24" viewBox="0 0 24 24" fill="none" xmlns="http://www.w3.org/2000/svg">
<g clip-path="url(#clip0_2199_18034)">
<path d="M23.2838 12.0007C23.2838 14.6652 22.3649 17.1138 20.8282 19.0471C18.7515 21.6567 15.5488 23.3315 11.953 23.3315C5.71625 23.3315 0.622192 18.2772 0.622192 12.0007C0.622192 9.33799 1.54105 6.88947 3.07956 4.95616C5.20244 2.27851 8.44351 0.669922 11.953 0.669922C18.2109 0.669922 23.2838 5.74014 23.2838 12.0007ZM2.06613 21.8369C2.3599 21.7803 2.64474 21.9765 2.70136 22.2702C2.75799 22.564 2.56575 22.8481 2.27198 22.9047C1.97824 22.9613 1.69019 22.7698 1.63356 22.4761C1.57694 22.1823 1.77239 21.8935 2.06613 21.8369ZM1.21566 20.8101C1.40264 20.774 1.58393 20.8989 1.61997 21.0859C1.65601 21.2728 1.53366 21.4537 1.34668 21.4897C1.15972 21.5257 0.976387 21.4038 0.940346 21.2169C0.904304 21.0299 1.02871 20.8461 1.21566 20.8101ZM1.26845 0.775156C1.56221 0.718525 1.84705 0.914746 1.90368 1.20849C1.9603 1.50222 1.76806 1.78632 1.4743 1.84295C1.18056 1.89958 0.892506 1.70807 0.835879 1.41433C0.779252 1.12059 0.974707 0.831783 1.26845 0.775156Z" fill="#FDE6EB"/>
<path d="M19.9102 3.21955C19.8378 3.15314 19.8329 3.04073 19.8993 2.96834C19.996 2.86278 20.0883 2.75228 20.1736 2.63986C20.2324 2.56165 20.344 2.54594 20.4227 2.60558C20.5008 2.66486 20.5163 2.77641 20.4569 2.85462C20.3651 2.97589 20.2656 3.09498 20.1614 3.20861C20.0948 3.28111 19.9826 3.28574 19.9102 3.21955Z" fill="url(#paint0_linear_2199_18034)"/>
<path d="M7.77224 9.60746C7.70401 9.49226 7.62224 9.38254 7.52918 9.28141C7.46269 9.20919 7.46755 9.09669 7.53977 9.03028C7.61217 8.96397 7.7245 8.96848 7.79099 9.04079C7.90071 9.16006 7.99724 9.28975 8.07814 9.42621C8.12814 9.51067 8.10019 9.61978 8.01582 9.66978C7.93186 9.71944 7.8225 9.69245 7.77224 9.60746Z" fill="url(#paint1_linear_2199_18034)"/>
<path d="M21.1994 12.8389V8.85873C21.1994 8.1076 20.5905 7.4987 19.8393 7.4987H10.1582C9.69613 7.4987 9.26566 7.26409 9.01523 6.87575L8.5222 6.11122C8.27178 5.72289 7.84131 5.48828 7.37923 5.48828H4.25467C3.50356 5.48828 2.89465 6.09718 2.89465 6.8483V12.8389H21.1994Z" fill="#F78AA1"/>
<rect x="4.1333" y="8.2666" width="16.4" height="6" rx="3" fill="white"/>
<path d="M23.3229 12.8268L21.5804 20.0251C21.3568 20.9486 20.5301 21.599 19.58 21.599H4.51402C3.56385 21.599 2.73718 20.9486 2.51361 20.0251L0.771028 12.8268C0.479604 11.623 1.39163 10.4639 2.63021 10.4639H21.4638C22.7023 10.4639 23.6144 11.623 23.3229 12.8268Z" fill="#FAB0C0"/>
<path d="M18.4897 7.11031C18.4897 8.60246 19.6979 9.81065 21.1901 9.81065C22.6822 9.81065 23.8922 8.60246 23.8922 7.11031C23.8922 5.61815 22.6822 4.4082 21.1901 4.4082C19.6979 4.4082 18.4897 5.61815 18.4897 7.11031Z" fill="#FAB0C0"/>
<path d="M19.4443 7.10962C19.4443 8.07452 20.2256 8.8558 21.1905 8.8558C22.1554 8.8558 22.9378 8.07452 22.9378 7.10962C22.9378 6.14472 22.1554 5.3623 21.1905 5.3623C20.2256 5.3623 19.4443 6.14472 19.4443 7.10962Z" fill="#EE0033"/>
<path d="M20.7137 7.64896L20.3251 7.17698C20.2269 7.05775 20.244 6.88142 20.3634 6.78314C20.4827 6.68478 20.6588 6.70199 20.7572 6.8214L20.971 7.08098L21.6662 6.52857C21.7871 6.4323 21.9632 6.45261 22.0593 6.57357C22.1555 6.69452 22.1354 6.87058 22.0143 6.96667L21.1038 7.69022C20.9841 7.78548 20.8103 7.76651 20.7137 7.64896Z" fill="white"/>
<path d="M15.2895 18.0864C15.2895 18.5079 14.9478 18.8496 14.5263 18.8496H9.42982C9.00832 18.8496 8.66663 18.5079 8.66663 18.0864C8.66663 17.6649 9.00832 17.3232 9.42982 17.3232H14.5263C14.9478 17.3232 15.2895 17.6649 15.2895 18.0864Z" fill="#EE0033"/>
<path d="M9.4294 18.3832C9.26587 18.3832 9.13281 18.2502 9.13281 18.0866C9.13281 17.9231 9.26587 17.79 9.4294 17.79H14.5259C14.6894 17.79 14.8225 17.9231 14.8225 18.0866C14.8225 18.2502 14.6894 18.3832 14.5259 18.3832H9.4294Z" fill="white"/>
<path d="M13.6692 14.7571C13.6692 15.6907 12.9121 16.4492 11.9771 16.4492C11.0435 16.4492 10.2864 15.6907 10.2864 14.7571C10.2864 13.8235 11.0435 13.0664 11.9771 13.0664C12.9121 13.0664 13.6692 13.8235 13.6692 14.7571Z" fill="#EE0033"/>
<path d="M11.9781 15.5027C11.8677 15.5027 11.7781 15.4132 11.7781 15.3027V14.2127C11.7781 14.1022 11.8677 14.0127 11.9781 14.0127C12.0885 14.0127 12.1781 14.1022 12.1781 14.2127V15.3027C12.1781 15.4132 12.0885 15.5027 11.9781 15.5027Z" fill="white"/>
<path d="M11.3799 14.8113C11.3018 14.7333 11.3018 14.6066 11.3799 14.5285L11.837 14.0713C11.8745 14.0338 11.9255 14.0127 11.9785 14.0127C12.0316 14.0127 12.0825 14.0338 12.12 14.0714L12.5768 14.5286C12.6548 14.6067 12.6548 14.7333 12.5766 14.8114C12.4985 14.8894 12.3718 14.8895 12.2937 14.8113L11.9785 14.4956L11.6627 14.8113C11.5846 14.8895 11.458 14.8895 11.3799 14.8113Z" fill="white"/>
<circle cx="21.1836" cy="2.44878" r="0.489796" fill="#FDE6EB"/>
<circle cx="22.1632" cy="1.71462" r="0.244898" fill="#FDE6EB"/>
<circle cx="22.4081" cy="2.449" r="0.244898" fill="#FDE6EB"/>
</g>
<defs>
<linearGradient id="paint0_linear_2199_18034" x1="0.647103" y1="2.9178" x2="20.493" y2="2.9178" gradientUnits="userSpaceOnUse">
<stop stop-color="#D6DCE8"/>
<stop offset="1" stop-color="white"/>
</linearGradient>
<linearGradient id="paint1_linear_2199_18034" x1="0.648409" y1="9.339" x2="20.493" y2="9.339" gradientUnits="userSpaceOnUse">
<stop stop-color="#D6DCE8"/>
<stop offset="1" stop-color="white"/>
</linearGradient>
<clipPath id="clip0_2199_18034">
<rect width="24" height="24" fill="white"/>
</clipPath>
</defs>
</svg>
