<svg width="32" height="32" viewBox="0 0 32 32" fill="none" xmlns="http://www.w3.org/2000/svg">
<path d="M5.69614 27.6372L14.4915 18.8418C15.0196 18.3138 15.2836 18.0498 15.588 17.9509C15.8558 17.8639 16.1443 17.8639 16.412 17.9509C16.7165 18.0498 16.9805 18.3138 17.5085 18.8418L26.2452 27.5786M18.6667 20L22.4915 16.1752C23.0195 15.6471 23.2836 15.3831 23.588 15.2842C23.8558 15.1972 24.1443 15.1972 24.412 15.2842C24.7165 15.3831 24.9805 15.6471 25.5085 16.1752L29.3334 20M13.3334 12C13.3334 13.4728 12.1394 14.6667 10.6667 14.6667C9.19393 14.6667 8.00002 13.4728 8.00002 12C8.00002 10.5272 9.19393 9.33333 10.6667 9.33333C12.1394 9.33333 13.3334 10.5272 13.3334 12ZM9.06669 28H22.9334C25.1736 28 26.2937 28 27.1493 27.564C27.902 27.1805 28.5139 26.5686 28.8974 25.816C29.3334 24.9603 29.3334 23.8402 29.3334 21.6V10.4C29.3334 8.15979 29.3334 7.03969 28.8974 6.18404C28.5139 5.43139 27.902 4.81947 27.1493 4.43597C26.2937 4 25.1736 4 22.9334 4H9.06669C6.82648 4 5.70637 4 4.85073 4.43597C4.09808 4.81947 3.48615 5.43139 3.10266 6.18404C2.66669 7.03969 2.66669 8.15979 2.66669 10.4V21.6C2.66669 23.8402 2.66669 24.9603 3.10266 25.816C3.48615 26.5686 4.09808 27.1805 4.85073 27.564C5.70637 28 6.82648 28 9.06669 28Z" stroke="#9CA1AA" stroke-width="2" stroke-linecap="round" stroke-linejoin="round"/>
</svg>
