<svg width="20" height="21" viewBox="0 0 20 21" fill="none" xmlns="http://www.w3.org/2000/svg">
<path d="M13.3333 6.16634C13.3333 5.39136 13.3333 5.00388 13.2481 4.68596C13.017 3.82323 12.3431 3.14936 11.4804 2.91819C11.1625 2.83301 10.775 2.83301 9.99999 2.83301C9.22501 2.83301 8.83753 2.83301 8.51961 2.91819C7.65688 3.14936 6.98301 3.82323 6.75184 4.68596C6.66666 5.00388 6.66666 5.39136 6.66666 6.16634M10.6667 14.9163H14.75C14.9833 14.9163 15.1 14.9163 15.1892 14.8709C15.2676 14.831 15.3313 14.7672 15.3712 14.6888C15.4167 14.5997 15.4167 14.483 15.4167 14.2497V12.2497C15.4167 12.0163 15.4167 11.8996 15.3712 11.8105C15.3313 11.7321 15.2676 11.6684 15.1892 11.6284C15.1 11.583 14.9833 11.583 14.75 11.583H10.6667C10.4333 11.583 10.3166 11.583 10.2275 11.6284C10.1491 11.6684 10.0854 11.7321 10.0454 11.8105C9.99999 11.8996 9.99999 12.0163 9.99999 12.2497V14.2497C9.99999 14.483 9.99999 14.5997 10.0454 14.6888C10.0854 14.7672 10.1491 14.831 10.2275 14.8709C10.3166 14.9163 10.4333 14.9163 10.6667 14.9163ZM5.66666 17.833H14.3333C15.7335 17.833 16.4335 17.833 16.9683 17.5605C17.4387 17.3208 17.8212 16.9384 18.0608 16.468C18.3333 15.9332 18.3333 15.2331 18.3333 13.833V10.1663C18.3333 8.76621 18.3333 8.06614 18.0608 7.53136C17.8212 7.06096 17.4387 6.67851 16.9683 6.43882C16.4335 6.16634 15.7335 6.16634 14.3333 6.16634H5.66666C4.26653 6.16634 3.56646 6.16634 3.03168 6.43882C2.56128 6.67851 2.17882 7.06096 1.93914 7.53136C1.66666 8.06614 1.66666 8.76621 1.66666 10.1663V13.833C1.66666 15.2331 1.66666 15.9332 1.93914 16.468C2.17882 16.9384 2.56128 17.3208 3.03168 17.5605C3.56646 17.833 4.26653 17.833 5.66666 17.833Z" stroke="#EE0033" stroke-width="1.5" stroke-linecap="round" stroke-linejoin="round"/>
</svg>
