<svg width="20" height="20" viewBox="0 0 20 20" fill="none" xmlns="http://www.w3.org/2000/svg">
<path d="M13.0002 7H13.0102M13.0002 13C16.314 13 19.0002 10.3137 19.0002 7C19.0002 3.68629 16.314 1 13.0002 1C9.68653 1 7.00024 3.68629 7.00024 7C7.00024 7.27368 7.01857 7.54308 7.05405 7.80704C7.11242 8.24118 7.1416 8.45825 7.12196 8.59559C7.1015 8.73865 7.07544 8.81575 7.00493 8.9419C6.93724 9.063 6.81795 9.18229 6.57938 9.42087L1.46887 14.5314C1.29592 14.7043 1.20945 14.7908 1.1476 14.8917C1.09278 14.9812 1.05237 15.0787 1.02787 15.1808C1.00024 15.2959 1.00024 15.4182 1.00024 15.6627V17.4C1.00024 17.9601 1.00024 18.2401 1.10924 18.454C1.20511 18.6422 1.35809 18.7951 1.54625 18.891C1.76017 19 2.04019 19 2.60024 19H4.3375C4.58209 19 4.70439 19 4.81948 18.9724C4.92151 18.9479 5.01906 18.9075 5.10853 18.8526C5.20945 18.7908 5.29592 18.7043 5.46887 18.5314L10.5794 13.4209C10.818 13.1823 10.9372 13.063 11.0583 12.9953C11.1845 12.9248 11.2616 12.8987 11.4047 12.8783C11.542 12.8586 11.7591 12.8878 12.1932 12.9462C12.4572 12.9817 12.7266 13 13.0002 13Z" stroke="#4C515B" style="stroke:#4C515B;stroke:color(display-p3 0.2980 0.3176 0.3569);stroke-opacity:1;" stroke-width="2" stroke-linecap="round" stroke-linejoin="round"/>
</svg>
