<svg width="20" height="20" viewBox="0 0 20 20" fill="none" xmlns="http://www.w3.org/2000/svg">
<path d="M17.4998 13.334V6.00065C17.4998 5.06723 17.4998 4.60052 17.3182 4.244C17.1584 3.9304 16.9034 3.67543 16.5898 3.51564C16.2333 3.33398 15.7666 3.33398 14.8332 3.33398H5.1665C4.23308 3.33398 3.76637 3.33398 3.40985 3.51564C3.09625 3.67543 2.84128 3.9304 2.68149 4.244C2.49984 4.60052 2.49984 5.06723 2.49984 6.00065V13.334M3.88873 16.6673H16.1109C16.6276 16.6673 16.8859 16.6673 17.0979 16.6105C17.673 16.4564 18.1223 16.0072 18.2764 15.432C18.3332 15.2201 18.3332 14.9617 18.3332 14.4451C18.3332 14.1868 18.3332 14.0576 18.3048 13.9516C18.2277 13.6641 18.0031 13.4394 17.7155 13.3624C17.6095 13.334 17.4804 13.334 17.2221 13.334H2.77762C2.51929 13.334 2.39013 13.334 2.28415 13.3624C1.99658 13.4394 1.77195 13.6641 1.6949 13.9516C1.6665 14.0576 1.6665 14.1868 1.6665 14.4451C1.6665 14.9617 1.6665 15.2201 1.72329 15.432C1.87741 16.0072 2.32665 16.4564 2.90181 16.6105C3.11375 16.6673 3.37208 16.6673 3.88873 16.6673Z" stroke="#4C515B" stroke-width="1.5" stroke-linecap="round" stroke-linejoin="round"/>
</svg>
