<svg width="20" height="20" viewBox="0 0 20 20" fill="none" xmlns="http://www.w3.org/2000/svg">
<path d="M14.75 6.75L9.31569 12.1843C9.11768 12.3823 9.01867 12.4813 8.90451 12.5184C8.80409 12.5511 8.69591 12.5511 8.59549 12.5184C8.48133 12.4813 8.38232 12.3823 8.18431 12.1843L6.31569 10.3157C6.11768 10.1177 6.01867 10.0187 5.90451 9.98158C5.80409 9.94895 5.69591 9.94895 5.59549 9.98158C5.48133 10.0187 5.38232 10.1177 5.18431 10.3157L0.75 14.75M14.75 6.75H10.75M14.75 6.75V10.75M5.55 18.75H13.95C15.6302 18.75 16.4702 18.75 17.112 18.423C17.6765 18.1354 18.1354 17.6765 18.423 17.112C18.75 16.4702 18.75 15.6302 18.75 13.95V5.55C18.75 3.86984 18.75 3.02976 18.423 2.38803C18.1354 1.82354 17.6765 1.3646 17.112 1.07698C16.4702 0.75 15.6302 0.75 13.95 0.75H5.55C3.86984 0.75 3.02976 0.75 2.38803 1.07698C1.82354 1.3646 1.3646 1.82354 1.07698 2.38803C0.75 3.02976 0.75 3.86984 0.75 5.55V13.95C0.75 15.6302 0.75 16.4702 1.07698 17.112C1.3646 17.6765 1.82354 18.1354 2.38803 18.423C3.02976 18.75 3.86984 18.75 5.55 18.75Z" stroke="black" style="stroke:black;stroke-opacity:1;" stroke-width="1.5" stroke-linecap="round" stroke-linejoin="round"/>
</svg>
