<svg width="186" height="40" viewBox="0 0 186 40" fill="none" xmlns="http://www.w3.org/2000/svg">
<path d="M12.0621 28.0676C13.0476 29.2084 14.2673 30.1236 15.6382 30.7509C17.0091 31.3782 18.499 31.7028 20.0066 31.7028C21.5141 31.7028 23.004 31.3781 24.3749 30.7508C25.7458 30.1235 26.9654 29.2083 27.951 28.0675C27.9244 27.435 27.7068 26.8255 27.3268 26.3192C26.9468 25.813 26.4223 25.4338 25.8224 25.2317L21.7594 23.8794C20.621 23.5037 19.392 23.5037 18.2536 23.8794L14.1906 25.2317C13.5907 25.4338 13.0662 25.813 12.6862 26.3193C12.3062 26.8256 12.0886 27.4352 12.0621 28.0676Z" fill="#EE0033"/>
<path d="M23.8505 18.5001C23.8481 17.4814 23.4424 16.5051 22.722 15.7847C22.0017 15.0643 21.0253 14.6586 20.0066 14.6562C14.9222 14.8396 14.9176 22.1661 20.0067 22.344C21.026 22.3438 22.0036 21.9387 22.7244 21.2179C23.4452 20.4971 23.8502 19.5195 23.8505 18.5001Z" fill="#EE0033"/>
<path d="M30.499 21.2369C29.9211 7.31709 10.0895 7.32186 9.51404 21.2369C9.51531 23.1702 10.0551 25.0648 11.0729 26.7084C11.2965 26.0874 11.6576 25.525 12.1292 25.0631C12.6008 24.6013 13.1706 24.2521 13.7962 24.0415L17.3646 22.8521C13.0203 20.2121 14.8471 13.4388 20.0066 13.4051C25.1663 13.4401 26.9929 20.2113 22.6483 22.8521L26.2168 24.0415C26.8424 24.2521 27.4123 24.6013 27.8839 25.0632C28.3555 25.525 28.7165 26.0874 28.9401 26.7085C29.958 25.0648 30.4977 23.1701 30.499 21.2369Z" fill="#EE0033"/>
<path d="M5.01915 25.8195C5.17987 25.7758 5.31678 25.6703 5.40005 25.5261C5.48331 25.3818 5.50618 25.2105 5.46365 25.0495C3.16724 16.8772 8.7057 8.02842 17.0518 6.4874C17.2778 7.18738 17.7455 7.78413 18.3711 8.17093C18.9968 8.55774 19.7396 8.70937 20.4668 8.5987C21.194 8.48804 21.8581 8.1223 22.3404 7.56689C22.8227 7.01148 23.0916 6.30263 23.0992 5.5671C23 1.67112 17.4284 1.40626 16.9328 5.23532C7.82491 6.83453 1.75743 16.4741 4.24925 25.3751C4.29468 25.5347 4.40045 25.6703 4.54416 25.7533C4.68787 25.8362 4.85823 25.86 5.01915 25.8195Z" fill="#EE0033"/>
<path d="M29.4034 32.9749C23.6411 37.7878 14.4197 37.2201 9.26373 31.7667C9.76739 31.2067 10.0442 30.4791 10.04 29.7259C9.91457 25.639 3.9853 25.6375 3.85474 29.7259C3.85942 30.2441 3.99366 30.753 4.24522 31.2062C4.49678 31.6594 4.85768 32.0425 5.29508 32.3206C5.73247 32.5987 6.23247 32.763 6.74957 32.7985C7.26667 32.8341 7.78445 32.7397 8.25578 32.5241C13.8183 38.54 23.8988 39.2042 30.1922 33.9517C30.3174 33.8457 30.3961 33.6949 30.4116 33.5316C30.4271 33.3684 30.378 33.2055 30.275 33.0779C30.1719 32.9503 30.0231 32.8681 29.8602 32.8488C29.6973 32.8296 29.5334 32.8749 29.4034 32.9749Z" fill="#EE0033"/>
<path d="M35.0941 27.3973C38.711 18.8822 33.9558 8.51472 25.1088 5.76144C24.9521 5.7138 24.783 5.72947 24.6377 5.8051C24.4925 5.88073 24.3827 6.01029 24.3319 6.16596C24.281 6.32164 24.2933 6.49104 24.3659 6.63779C24.4386 6.78455 24.5659 6.89697 24.7205 6.95094C32.8325 9.47148 37.2126 18.9317 33.9986 26.7776C33.5353 26.6338 33.0447 26.6005 32.5663 26.6805C32.0878 26.7605 31.6347 26.9515 31.2434 27.2381C30.852 27.5248 30.5333 27.8992 30.3127 28.3312C30.0921 28.7633 29.9758 29.241 29.9731 29.7261C30.1027 33.8154 36.027 33.8092 36.1584 29.7262C36.1591 29.2843 36.0644 28.8474 35.8807 28.4455C35.697 28.0435 35.4287 27.686 35.0941 27.3973Z" fill="#EE0033"/>
<path d="M185.88 23.7958V25.9238C185.88 26.2088 185.747 26.3608 185.481 26.3608H182.232V36.2408C182.232 36.5448 182.213 36.6398 181.776 36.6398H179.078C178.793 36.6398 178.641 36.5068 178.641 36.2408V26.3608H175.468C175.202 26.3608 175.069 26.2088 175.069 25.9238V23.7958C175.069 23.3588 175.164 23.3398 175.468 23.3398H185.481C185.785 23.3398 185.88 23.3588 185.88 23.7958Z" fill="black"/>
<path d="M165.258 29.4388H165.125V36.2408C165.125 36.5448 165.106 36.6398 164.669 36.6398H161.971C161.686 36.6398 161.534 36.5068 161.534 36.2408V24.8408C161.534 23.6438 161.857 23.3398 162.921 23.3398H163.909C164.669 23.3398 164.973 23.4348 165.524 24.1948L168.241 28.2608L169.723 30.5788H169.856V23.7388C169.856 23.4348 169.875 23.3398 170.312 23.3398H173.01C173.295 23.3398 173.447 23.4728 173.447 23.7388V35.1388C173.447 35.9938 173.2 36.6398 172.06 36.6398H171.072C170.35 36.6398 169.97 36.5448 169.457 35.7848L166.778 31.7948L165.258 29.4388Z" fill="black"/>
<path d="M159.447 34.0558V36.2028C159.447 36.4878 159.333 36.6398 159.086 36.6398H153.215C150.194 36.6398 149.529 34.7208 149.529 33.0298V26.9498C149.529 25.1068 150.479 23.3398 153.177 23.3398H158.782C159.086 23.3398 159.143 23.3588 159.143 23.7958V25.9428C159.143 26.2658 159.067 26.3608 158.782 26.3608H154.26C153.253 26.3608 153.12 26.9498 153.12 27.4438V28.2418H158.212C158.516 28.2418 158.573 28.2798 158.573 28.7168V30.6928C158.573 30.9778 158.459 31.1298 158.212 31.1298H153.12V32.5548C153.12 33.5238 153.595 33.5998 154.26 33.5998H159.086C159.39 33.5998 159.447 33.6188 159.447 34.0558Z" fill="black"/>
<path d="M143.312 36.2788V29.9708H143.198L142.229 32.1368L141.241 34.2458C140.956 34.8728 140.728 35.0818 140.177 35.0818H138.904C138.277 35.0818 138.144 34.8728 137.84 34.2458L136.985 32.5358L135.883 30.1988H135.769V36.2788C135.769 36.6398 135.655 36.6398 135.351 36.6398H132.71C132.425 36.6398 132.273 36.6398 132.273 36.2788V24.8408C132.273 23.6438 132.672 23.3398 133.641 23.3398H135.104C135.921 23.3398 136.168 23.6058 136.491 24.2708L138.011 27.4248L139.493 30.5408H139.569L141.051 27.4628L142.571 24.3278C142.894 23.6628 143.179 23.3398 144.148 23.3398H145.326C146.143 23.3398 146.675 23.5298 146.675 24.7078V36.2788C146.675 36.6398 146.561 36.6398 146.238 36.6398H143.73C143.445 36.6398 143.312 36.6398 143.312 36.2788Z" fill="black"/>
<path d="M130.187 34.0558V36.2028C130.187 36.4878 130.073 36.6398 129.826 36.6398H123.955C120.934 36.6398 120.269 34.7208 120.269 33.0298V26.9498C120.269 25.1068 121.219 23.3398 123.917 23.3398H129.522C129.826 23.3398 129.883 23.3588 129.883 23.7958V25.9428C129.883 26.2658 129.807 26.3608 129.522 26.3608H125C123.993 26.3608 123.86 26.9498 123.86 27.4438V28.2418H128.952C129.256 28.2418 129.313 28.2798 129.313 28.7168V30.6928C129.313 30.9778 129.199 31.1298 128.952 31.1298H123.86V32.5548C123.86 33.5238 124.335 33.5998 125 33.5998H129.826C130.13 33.5998 130.187 33.6188 130.187 34.0558Z" fill="black"/>
<path d="M112.749 33.6384C113.338 33.6384 113.813 33.5814 114.345 33.4294L114.364 31.5484C114.212 31.5484 113.965 31.5674 113.813 31.5864C113.281 31.6434 112.768 31.7764 112.312 31.9474C111.913 32.0994 111.837 32.0994 111.704 31.7764L111.153 29.8004C111.096 29.5914 111.039 29.4394 111.362 29.3064C112.255 28.9834 113.49 28.6604 114.706 28.6604C115.371 28.6604 115.827 28.6984 116.264 28.8314C117.385 29.1164 117.822 29.8194 117.822 31.2634V34.7024C117.822 35.1394 117.784 35.5384 117.252 35.8424C115.58 36.7544 113.319 36.8494 112.407 36.8494C107.923 36.8494 106.251 33.9234 106.251 29.9904C106.251 25.9054 108.436 23.1504 112.635 23.1504C114.098 23.1504 115.409 23.3594 116.53 23.9864C116.967 24.2144 116.929 24.2904 116.701 24.8034L116.036 26.3614C115.865 26.8364 115.77 26.8934 115.314 26.7414C114.307 26.4374 113.737 26.3044 112.806 26.3044C111.039 26.3044 110.051 27.5774 110.051 29.9904C110.051 32.3654 110.792 33.6384 112.749 33.6384Z" fill="black"/>
<path d="M101.277 36.3163L100.65 34.0363H96.9066L96.2796 36.2213C96.1846 36.5063 96.1086 36.6393 95.6716 36.6393H92.8786C92.6316 36.6393 92.5746 36.4873 92.6316 36.2783L96.3746 24.5173C96.6976 23.5103 97.1346 23.3203 97.9896 23.3203H99.5286C100.422 23.3203 100.878 23.3773 101.239 24.4983L104.982 36.2783C105.039 36.4113 105.039 36.6393 104.735 36.6393H101.866C101.562 36.6393 101.353 36.6013 101.277 36.3163ZM98.1036 29.7993L97.7046 31.2243H99.8706L99.5096 29.7423L98.9016 27.0063H98.7496L98.1036 29.7993Z" fill="black"/>
<path d="M82.7826 29.4388H82.6496V36.2408C82.6496 36.5448 82.6306 36.6398 82.1936 36.6398H79.4956C79.2106 36.6398 79.0586 36.5068 79.0586 36.2408V24.8408C79.0586 23.6438 79.3816 23.3398 80.4456 23.3398H81.4336C82.1936 23.3398 82.4976 23.4348 83.0486 24.1948L85.7656 28.2608L87.2476 30.5788H87.3806V23.7388C87.3806 23.4348 87.3996 23.3398 87.8366 23.3398H90.5346C90.8196 23.3398 90.9716 23.4728 90.9716 23.7388V35.1388C90.9716 35.9938 90.7246 36.6398 89.5846 36.6398H88.5966C87.8746 36.6398 87.4946 36.5448 86.9816 35.7848L84.3026 31.7948L82.7826 29.4388Z" fill="black"/>
<path d="M73.7044 36.3163L73.0774 34.0363H69.3344L68.7074 36.2213C68.6124 36.5063 68.5364 36.6393 68.0994 36.6393H65.3064C65.0594 36.6393 65.0024 36.4873 65.0594 36.2783L68.8024 24.5173C69.1254 23.5103 69.5624 23.3203 70.4174 23.3203H71.9564C72.8494 23.3203 73.3054 23.3773 73.6664 24.4983L77.4094 36.2783C77.4664 36.4113 77.4664 36.6393 77.1624 36.6393H74.2934C73.9894 36.6393 73.7804 36.6013 73.7044 36.3163ZM70.5314 29.7993L70.1324 31.2243H72.2984L71.9374 29.7423L71.3294 27.0063H71.1774L70.5314 29.7993Z" fill="black"/>
<path d="M60.039 36.2788V29.9708H59.925L58.956 32.1368L57.968 34.2458C57.683 34.8728 57.455 35.0818 56.904 35.0818H55.631C55.004 35.0818 54.871 34.8728 54.567 34.2458L53.712 32.5358L52.61 30.1988H52.496V36.2788C52.496 36.6398 52.382 36.6398 52.078 36.6398H49.437C49.152 36.6398 49 36.6398 49 36.2788V24.8408C49 23.6438 49.399 23.3398 50.368 23.3398H51.831C52.648 23.3398 52.895 23.6058 53.218 24.2708L54.738 27.4248L56.22 30.5408H56.296L57.778 27.4628L59.298 24.3278C59.621 23.6628 59.906 23.3398 60.875 23.3398H62.053C62.87 23.3398 63.402 23.5298 63.402 24.7078V36.2788C63.402 36.6398 63.288 36.6398 62.965 36.6398H60.457C60.172 36.6398 60.039 36.6398 60.039 36.2788Z" fill="black"/>
<path d="M111.376 13.6384C111.965 13.6384 112.44 13.5814 112.972 13.4294L112.991 11.5484C112.839 11.5484 112.592 11.5674 112.44 11.5864C111.908 11.6434 111.395 11.7764 110.939 11.9474C110.54 12.0994 110.464 12.0994 110.331 11.7764L109.78 9.80039C109.723 9.59139 109.666 9.43939 109.989 9.30639C110.882 8.98339 112.117 8.66039 113.333 8.66039C113.998 8.66039 114.454 8.69839 114.891 8.83139C116.012 9.11639 116.449 9.81939 116.449 11.2634V14.7024C116.449 15.1394 116.411 15.5384 115.879 15.8424C114.207 16.7544 111.946 16.8494 111.034 16.8494C106.55 16.8494 104.878 13.9234 104.878 9.99039C104.878 5.90539 107.063 3.15039 111.262 3.15039C112.725 3.15039 114.036 3.35939 115.157 3.98639C115.594 4.21439 115.556 4.29039 115.328 4.80339L114.663 6.36139C114.492 6.83639 114.397 6.89339 113.941 6.74139C112.934 6.43739 112.364 6.30439 111.433 6.30439C109.666 6.30439 108.678 7.57739 108.678 9.99039C108.678 12.3654 109.419 13.6384 111.376 13.6384Z" fill="black"/>
<path d="M94.2123 9.43884H94.0793V16.2408C94.0793 16.5448 94.0603 16.6398 93.6233 16.6398H90.9253C90.6403 16.6398 90.4883 16.5068 90.4883 16.2408V4.84084C90.4883 3.64384 90.8113 3.33984 91.8753 3.33984H92.8633C93.6233 3.33984 93.9273 3.43484 94.4783 4.19484L97.1953 8.26084L98.6773 10.5788H98.8103V3.73884C98.8103 3.43484 98.8293 3.33984 99.2663 3.33984H101.964C102.249 3.33984 102.401 3.47284 102.401 3.73884V15.1388C102.401 15.9938 102.154 16.6398 101.014 16.6398H100.026C99.3043 16.6398 98.9243 16.5448 98.4113 15.7848L95.7323 11.7948L94.2123 9.43884Z" fill="black"/>
<path d="M87.3508 3.73884V16.2408C87.3508 16.5448 87.3318 16.6398 86.8948 16.6398H84.1968C83.9118 16.6398 83.7598 16.5068 83.7598 16.2408V3.73884C83.7598 3.47284 83.9118 3.33984 84.1968 3.33984H86.8948C87.3318 3.33984 87.3508 3.43484 87.3508 3.73884Z" fill="black"/>
<path d="M80.5237 12.5358L81.4167 16.1458C81.4737 16.3168 81.5307 16.6398 81.0747 16.6398H78.4527C78.0537 16.6398 77.8067 16.6778 77.6737 16.1648L76.9137 12.9918C76.6287 11.9088 76.3057 11.4338 75.3367 11.4338H73.8547V16.2598C73.8547 16.5638 73.8357 16.6398 73.3987 16.6398H70.7007C70.4157 16.6398 70.2637 16.5068 70.2637 16.2598V4.59384C70.2637 3.81484 70.4537 3.33984 71.4987 3.33984H76.3437C79.3267 3.33984 80.8657 4.80284 80.8657 7.23484C80.8657 8.60284 80.1627 9.74285 79.0797 10.2748V10.3128C79.9727 10.7118 80.2957 11.5478 80.5237 12.5358ZM77.1607 7.51984C77.1607 6.98784 76.8567 6.43684 76.0207 6.43684H73.8547V8.62184H76.0207C76.6287 8.62184 77.1607 8.26084 77.1607 7.51984Z" fill="black"/>
<path d="M67.1262 3.73884V16.2408C67.1262 16.5448 67.1072 16.6398 66.6702 16.6398H63.9722C63.6872 16.6398 63.5352 16.5068 63.5352 16.2408V3.73884C63.5352 3.47284 63.6872 3.33984 63.9722 3.33984H66.6702C67.1072 3.33984 67.1262 3.43484 67.1262 3.73884Z" fill="black"/>
<path d="M60.4 3.73884V16.2408C60.4 16.5448 60.381 16.6398 59.944 16.6398H57.246C56.961 16.6398 56.809 16.5068 56.809 16.2408V11.2248H52.591V16.2408C52.591 16.5448 52.572 16.6398 52.135 16.6398H49.437C49.152 16.6398 49 16.5068 49 16.2408V3.73884C49 3.47284 49.152 3.33984 49.437 3.33984H52.135C52.572 3.33984 52.591 3.43484 52.591 3.73884V8.22284H56.809V3.73884C56.809 3.47284 56.961 3.33984 57.246 3.33984H59.944C60.381 3.33984 60.4 3.43484 60.4 3.73884Z" fill="black"/>
</svg>
