<svg width="42" height="42" viewBox="0 0 42 42" fill="none" xmlns="http://www.w3.org/2000/svg">
<path d="M31.5344 31.6553C30.9159 31.6553 30.3314 31.8019 29.8124 32.0611L27.1296 29.3783C26.8988 29.1474 26.5855 29.0176 26.259 29.0176H22.2148V31.4802H25.749L28.0712 33.8023C26.7767 36.3065 28.7027 39.431 31.5345 39.3932C36.6598 39.199 36.6589 31.8491 31.5344 31.6553Z" fill="#EE0033" style="fill:#EE0033;fill:color(display-p3 0.9333 0.0000 0.2000);fill-opacity:1;"/>
<path d="M38.1286 22.4239C36.4257 22.4239 34.9773 23.5303 34.4617 25.0616H32.0443L29.7673 22.7845C29.5365 22.5536 29.2233 22.4238 28.8967 22.4238H22.2149V24.8864H28.3868L30.6638 27.1635C30.8946 27.3944 31.2079 27.5242 31.5344 27.5242H34.4618C35.9074 31.6195 41.9115 30.6875 41.9977 26.2928C41.9976 24.1595 40.2619 22.4239 38.1286 22.4239Z" fill="#EE0033" style="fill:#EE0033;fill:color(display-p3 0.9333 0.0000 0.2000);fill-opacity:1;"/>
<path d="M27.1296 12.6561L29.8124 9.97325C32.3164 11.2678 35.4413 9.34167 35.4034 6.50994C35.4034 4.3766 33.6678 2.64096 31.5344 2.64096C28.703 2.60337 26.7764 5.7279 28.0712 8.23195L25.749 10.5541H22.2148V13.0167H26.259C26.5855 13.0167 26.8987 12.887 27.1296 12.6561Z" fill="#EE0033" style="fill:#EE0033;fill:color(display-p3 0.9333 0.0000 0.2000);fill-opacity:1;"/>
<path d="M29.7673 19.2496L32.0443 16.9725H34.4617C35.9067 21.0672 41.9113 20.1364 41.9976 15.7411C41.9109 11.3453 35.9059 10.4158 34.4617 14.5099H31.5343C31.2077 14.5099 30.8945 14.6397 30.6637 14.8706L28.3867 17.1477H22.2148V19.6103H28.8966C29.2233 19.6103 29.5365 19.4805 29.7673 19.2496Z" fill="#EE0033" style="fill:#EE0033;fill:color(display-p3 0.9333 0.0000 0.2000);fill-opacity:1;"/>
<path d="M15.0514 0.00254562C10.8102 -0.144635 8.54318 6.13818 12.0854 6.4382C12.7654 6.43812 13.3167 6.98941 13.3167 7.66942C13.3167 8.34942 12.7654 8.90071 12.0854 8.90071C10.1993 8.90071 8.60007 7.65004 8.07267 5.93468H7.63638C5.04433 5.93468 2.93553 8.0434 2.93553 10.6355C2.93553 12.4098 4.37902 13.8533 6.15332 13.8533C7.78405 13.9129 7.78503 16.2558 6.15332 16.3159H4.67018C-1.55911 16.553 -1.55435 25.4827 4.67018 25.7175H6.15324C7.78503 25.7783 7.78421 28.1198 6.15324 28.1801C4.37894 28.1801 2.93545 29.6236 2.93545 31.3979C2.93545 33.9899 5.04425 36.0987 7.63629 36.0987H8.07258C8.60007 34.3833 10.1992 33.1327 12.0853 33.1327C12.7653 33.1327 13.3166 33.684 13.3166 34.364C13.3166 35.044 12.7653 35.5953 12.0853 35.5953C11.1287 35.5953 10.3506 36.3735 10.3506 37.33C10.5862 43.5569 19.5168 43.5567 19.7522 37.33V28.4319C19.6269 25.1501 14.9234 25.1532 14.7996 28.4319C14.7996 29.1119 14.2484 29.6632 13.5683 29.6632C12.8883 29.6632 12.3371 29.1119 12.3371 28.4319C12.2841 24.6797 16.5579 22.2345 19.7522 24.1614V17.8721C16.5569 19.7987 12.2844 17.3538 12.3371 13.6016C12.3371 12.9216 12.8883 12.3703 13.5683 12.3703C14.2484 12.3703 14.7996 12.9216 14.7996 13.6016C14.9242 16.8827 19.6285 16.8807 19.7522 13.6016V4.70347C19.7522 2.11126 17.6434 0.00254562 15.0514 0.00254562Z" fill="#EE0033" style="fill:#EE0033;fill:color(display-p3 0.9333 0.0000 0.2000);fill-opacity:1;"/>
</svg>
