<svg width="256" height="40" viewBox="0 0 256 40" fill="none" xmlns="http://www.w3.org/2000/svg">
<path d="M65.8267 17.1334C69.1758 17.1334 71.9004 14.4087 71.9004 11.0597C71.9004 7.71058 69.1758 4.99536 65.8267 4.99536C62.4776 4.99536 59.7529 7.72004 59.7529 11.0691C59.7529 14.4182 62.4776 17.1429 65.8267 17.1429V17.1334Z" fill="#EE0033"/>
<path d="M65.8265 19.7822C59.1189 19.7822 53.6885 25.2221 53.6885 31.9203C53.6885 33.6232 55.0697 35.0045 56.7727 35.0045H74.8804C76.5833 35.0045 77.9646 33.6232 77.9646 31.9203C77.9646 25.2127 72.5341 19.7822 65.8265 19.7822Z" fill="#EE0033"/>
<path d="M86.565 7.54956H80.8413C80.0628 7.54956 79.4316 8.18068 79.4316 8.9592V8.96866C79.4316 9.74718 80.0628 10.3783 80.8413 10.3783H86.565C87.3435 10.3783 87.9746 9.74718 87.9746 8.96866V8.9592C87.9746 8.18068 87.3435 7.54956 86.565 7.54956Z" fill="#EE0033"/>
<path d="M76.7633 7.54968H75.1928C74.4143 7.54968 73.7832 8.1808 73.7832 8.95932V8.96878C73.7832 9.74731 74.4143 10.3784 75.1928 10.3784H76.7633C77.5418 10.3784 78.173 9.74731 78.173 8.96878V8.95932C78.173 8.1808 77.5418 7.54968 76.7633 7.54968Z" fill="#EE0033"/>
<path d="M86.5647 14.4087H77.6811C76.9026 14.4087 76.2715 15.0398 76.2715 15.8183V15.8278C76.2715 16.6063 76.9026 17.2374 77.6811 17.2374H86.5647C87.3432 17.2374 87.9743 16.6063 87.9743 15.8278V15.8183C87.9743 15.0398 87.3432 14.4087 86.5647 14.4087Z" fill="#EE0033"/>
<path d="M86.5642 21.2582H81.938C81.1594 21.2582 80.5283 21.8893 80.5283 22.6678V22.6773C80.5283 23.4558 81.1594 24.0869 81.938 24.0869H86.5642C87.3428 24.0869 87.9739 23.4558 87.9739 22.6773V22.6678C87.9739 21.8893 87.3428 21.2582 86.5642 21.2582Z" fill="#EE0033"/>
<path d="M205.169 35.4201C205.169 35.7268 205.043 35.8801 204.789 35.8801H198.609C197.809 35.8801 197.156 35.7668 196.649 35.5401C196.156 35.3135 195.763 35.0201 195.469 34.6601C195.189 34.2868 194.996 33.8735 194.889 33.4201C194.783 32.9668 194.729 32.5201 194.729 32.0801V25.6801C194.729 25.2001 194.796 24.7335 194.929 24.2801C195.063 23.8135 195.276 23.4068 195.569 23.0601C195.876 22.7001 196.276 22.4135 196.769 22.2001C197.263 21.9868 197.863 21.8801 198.569 21.8801H204.469C204.629 21.8801 204.729 21.9068 204.769 21.9601C204.823 22.0001 204.849 22.1335 204.849 22.3601V24.6201C204.849 24.7935 204.823 24.9135 204.769 24.9801C204.716 25.0335 204.616 25.0601 204.469 25.0601H199.709C199.443 25.0601 199.229 25.1001 199.069 25.1801C198.909 25.2468 198.789 25.3335 198.709 25.4401C198.629 25.5468 198.576 25.6668 198.549 25.8001C198.523 25.9335 198.509 26.0668 198.509 26.2001V27.0401H203.869C204.029 27.0401 204.129 27.0668 204.169 27.1201C204.223 27.1735 204.249 27.3135 204.249 27.5401V29.6201C204.249 29.9268 204.123 30.0801 203.869 30.0801H198.509V31.5801C198.509 31.8335 198.536 32.0335 198.589 32.1801C198.656 32.3268 198.743 32.4401 198.849 32.5201C198.956 32.5868 199.083 32.6335 199.229 32.6601C199.376 32.6735 199.536 32.6801 199.709 32.6801H204.789C204.949 32.6801 205.049 32.7068 205.089 32.7601C205.143 32.8001 205.169 32.9335 205.169 33.1601V35.4201Z" fill="black"/>
<path d="M187.752 32.7202C188.432 32.7202 189.012 32.6402 189.492 32.4802C189.972 32.3202 190.425 32.1602 190.852 32.0002C191.052 31.9202 191.192 31.8935 191.272 31.9202C191.365 31.9468 191.459 32.0735 191.552 32.3002L192.412 34.1002C192.505 34.3002 192.545 34.4535 192.532 34.5602C192.519 34.6668 192.439 34.7602 192.292 34.8402C191.492 35.3202 190.692 35.6535 189.892 35.8402C189.092 36.0135 188.259 36.1002 187.392 36.1002C186.205 36.1002 185.199 35.9202 184.372 35.5602C183.559 35.1868 182.892 34.6802 182.372 34.0402C181.865 33.4002 181.492 32.6402 181.252 31.7602C181.025 30.8802 180.912 29.9202 180.912 28.8802C180.912 27.8002 181.072 26.8202 181.392 25.9402C181.712 25.0602 182.159 24.3068 182.732 23.6802C183.319 23.0402 184.019 22.5468 184.832 22.2002C185.645 21.8535 186.545 21.6802 187.532 21.6802C188.305 21.6802 189.025 21.7468 189.692 21.8802C190.372 22.0002 191.005 22.2268 191.592 22.5602C191.699 22.6268 191.779 22.6802 191.832 22.7202C191.899 22.7602 191.932 22.8135 191.932 22.8802C191.945 22.9335 191.939 23.0068 191.912 23.1002C191.899 23.1802 191.865 23.2868 191.812 23.4202L191.112 25.0602C191.019 25.3135 190.925 25.4668 190.832 25.5202C190.752 25.5602 190.592 25.5402 190.352 25.4602C190.085 25.3802 189.845 25.3135 189.632 25.2602C189.419 25.1935 189.205 25.1402 188.992 25.1002C188.792 25.0602 188.585 25.0335 188.372 25.0202C188.172 25.0068 187.952 25.0002 187.712 25.0002C186.885 25.0002 186.212 25.3335 185.692 26.0002C185.172 26.6535 184.912 27.6135 184.912 28.8802C184.912 30.1335 185.125 31.0868 185.552 31.7402C185.992 32.3935 186.725 32.7202 187.752 32.7202Z" fill="black"/>
<path d="M179.145 35.3601C179.172 35.4535 179.179 35.5668 179.165 35.7001C179.152 35.8201 179.025 35.8801 178.785 35.8801H176.025C175.812 35.8801 175.639 35.8668 175.505 35.8401C175.372 35.8001 175.272 35.6468 175.205 35.3801L174.405 32.0401C174.259 31.4668 174.072 31.0535 173.845 30.8001C173.619 30.5335 173.252 30.4001 172.745 30.4001H171.185V35.4801C171.185 35.6401 171.159 35.7468 171.105 35.8001C171.065 35.8535 170.932 35.8801 170.705 35.8801H167.865C167.559 35.8801 167.405 35.7468 167.405 35.4801V23.2001C167.405 22.7868 167.485 22.4668 167.645 22.2401C167.805 22.0001 168.159 21.8801 168.705 21.8801H173.805C175.379 21.8801 176.565 22.2468 177.365 22.9801C178.165 23.7001 178.565 24.7001 178.565 25.9801C178.565 26.7001 178.392 27.3468 178.045 27.9201C177.712 28.4801 177.259 28.9001 176.685 29.1801V29.2201C177.152 29.4335 177.492 29.7468 177.705 30.1601C177.919 30.5735 178.085 31.0401 178.205 31.5601L179.145 35.3601ZM174.665 26.2801C174.665 26.0001 174.572 25.7401 174.385 25.5001C174.212 25.2601 173.905 25.1401 173.465 25.1401H171.185V27.4401H173.465C173.785 27.4401 174.065 27.3468 174.305 27.1601C174.545 26.9601 174.665 26.6668 174.665 26.2801Z" fill="black"/>
<path d="M164.382 33.9401C164.382 34.3668 164.288 34.7535 164.102 35.1001C163.928 35.4335 163.582 35.6735 163.062 35.8201C162.795 35.9001 162.475 35.9601 162.102 36.0001C161.728 36.0401 161.362 36.0668 161.002 36.0801C160.642 36.1068 160.302 36.1201 159.982 36.1201C159.675 36.1335 159.448 36.1401 159.302 36.1401C158.115 36.1401 157.095 36.0535 156.242 35.8801C155.402 35.6935 154.708 35.3735 154.162 34.9201C153.615 34.4668 153.208 33.8668 152.942 33.1201C152.688 32.3601 152.562 31.4068 152.562 30.2601V22.3001C152.562 22.0201 152.715 21.8801 153.022 21.8801H155.862C156.088 21.8801 156.222 21.9135 156.262 21.9801C156.315 22.0335 156.342 22.1401 156.342 22.3001V30.6201C156.342 31.4068 156.528 31.9735 156.902 32.3201C157.275 32.6668 157.922 32.8401 158.842 32.8401C158.908 32.8401 159.022 32.8401 159.182 32.8401C159.342 32.8401 159.508 32.8335 159.682 32.8201C159.868 32.8068 160.048 32.8001 160.222 32.8001C160.395 32.7868 160.535 32.7668 160.642 32.7401V22.3001C160.642 22.0201 160.795 21.8801 161.102 21.8801H163.922C164.148 21.8801 164.282 21.9135 164.322 21.9801C164.375 22.0335 164.402 22.1401 164.402 22.3001L164.382 33.9401Z" fill="black"/>
<path d="M149.959 28.8602C149.959 29.9802 149.839 30.9868 149.599 31.8802C149.359 32.7735 148.979 33.5335 148.459 34.1602C147.952 34.7868 147.292 35.2668 146.479 35.6002C145.665 35.9335 144.692 36.1002 143.559 36.1002C142.479 36.1002 141.539 35.9402 140.739 35.6202C139.952 35.2868 139.305 34.8135 138.799 34.2002C138.292 33.5735 137.912 32.8135 137.659 31.9202C137.419 31.0268 137.299 30.0202 137.299 28.9002C137.299 27.8068 137.432 26.8135 137.699 25.9202C137.979 25.0268 138.379 24.2668 138.899 23.6402C139.432 23.0002 140.092 22.5135 140.879 22.1802C141.665 21.8335 142.579 21.6602 143.619 21.6602C144.699 21.6602 145.632 21.8335 146.419 22.1802C147.219 22.5135 147.879 22.9935 148.399 23.6202C148.932 24.2468 149.325 25.0068 149.579 25.9002C149.832 26.7802 149.959 27.7668 149.959 28.8602ZM145.979 28.8802C145.965 28.3602 145.919 27.8668 145.839 27.4002C145.772 26.9202 145.652 26.5068 145.479 26.1602C145.305 25.8135 145.065 25.5402 144.759 25.3402C144.452 25.1268 144.065 25.0202 143.599 25.0202C143.212 25.0202 142.872 25.1202 142.579 25.3202C142.285 25.5202 142.045 25.7935 141.859 26.1402C141.672 26.4735 141.532 26.8668 141.439 27.3202C141.345 27.7735 141.299 28.2468 141.299 28.7402C141.299 29.3535 141.339 29.9068 141.419 30.4002C141.499 30.8935 141.632 31.3135 141.819 31.6602C142.005 31.9935 142.252 32.2535 142.559 32.4402C142.865 32.6268 143.245 32.7202 143.699 32.7202C144.139 32.7202 144.505 32.6202 144.799 32.4202C145.092 32.2068 145.325 31.9268 145.499 31.5802C145.672 31.2202 145.792 30.8068 145.859 30.3402C145.939 29.8735 145.979 29.3868 145.979 28.8802Z" fill="black"/>
<path d="M125.134 26.0002C125.134 25.4268 125.227 24.8802 125.414 24.3602C125.614 23.8268 125.914 23.3602 126.314 22.9602C126.727 22.5602 127.254 22.2468 127.894 22.0202C128.534 21.7802 129.294 21.6602 130.174 21.6602C130.987 21.6602 131.807 21.7402 132.634 21.9002C133.474 22.0468 134.181 22.2735 134.754 22.5802C134.981 22.6868 135.101 22.7868 135.114 22.8802C135.127 22.9735 135.081 23.1602 134.974 23.4402L134.434 25.1002C134.341 25.3535 134.247 25.5002 134.154 25.5402C134.074 25.5802 133.921 25.5668 133.694 25.5002C133.121 25.3402 132.527 25.2202 131.914 25.1402C131.314 25.0468 130.754 25.0002 130.234 25.0002C129.767 25.0002 129.454 25.0668 129.294 25.2002C129.147 25.3335 129.074 25.4935 129.074 25.6802C129.074 25.7602 129.087 25.8468 129.114 25.9402C129.154 26.0202 129.221 26.1135 129.314 26.2202C129.421 26.3135 129.567 26.4135 129.754 26.5202C129.954 26.6268 130.221 26.7402 130.554 26.8602C131.354 27.1668 132.074 27.4735 132.714 27.7802C133.354 28.0735 133.894 28.4068 134.334 28.7802C134.774 29.1535 135.114 29.5868 135.354 30.0802C135.594 30.5602 135.714 31.1268 135.714 31.7802C135.714 33.2202 135.241 34.3002 134.294 35.0202C133.347 35.7402 132.007 36.1002 130.274 36.1002C129.367 36.1002 128.414 36.0068 127.414 35.8202C126.427 35.6335 125.534 35.2935 124.734 34.8002C124.601 34.7202 124.521 34.6335 124.494 34.5402C124.481 34.4335 124.514 34.2802 124.594 34.0802L125.374 32.1802C125.467 31.9535 125.561 31.8268 125.654 31.8002C125.747 31.7735 125.894 31.8002 126.094 31.8802C126.294 31.9602 126.547 32.0468 126.854 32.1402C127.174 32.2335 127.514 32.3202 127.874 32.4002C128.234 32.4802 128.607 32.5468 128.994 32.6002C129.394 32.6535 129.781 32.6802 130.154 32.6802C130.474 32.6802 130.727 32.6535 130.914 32.6002C131.101 32.5335 131.247 32.4602 131.354 32.3802C131.461 32.2868 131.527 32.1868 131.554 32.0802C131.594 31.9735 131.614 31.8802 131.614 31.8002C131.614 31.6935 131.601 31.5868 131.574 31.4802C131.547 31.3735 131.481 31.2735 131.374 31.1802C131.281 31.0735 131.127 30.9668 130.914 30.8602C130.701 30.7402 130.414 30.6135 130.054 30.4802C129.361 30.2268 128.714 29.9668 128.114 29.7002C127.514 29.4202 126.994 29.1068 126.554 28.7602C126.114 28.4135 125.767 28.0202 125.514 27.5802C125.261 27.1268 125.134 26.6002 125.134 26.0002Z" fill="black"/>
<path d="M123.177 35.4201C123.177 35.7268 123.051 35.8801 122.797 35.8801H116.617C115.817 35.8801 115.164 35.7668 114.657 35.5401C114.164 35.3135 113.771 35.0201 113.477 34.6601C113.197 34.2868 113.004 33.8735 112.897 33.4201C112.791 32.9668 112.737 32.5201 112.737 32.0801V25.6801C112.737 25.2001 112.804 24.7335 112.937 24.2801C113.071 23.8135 113.284 23.4068 113.577 23.0601C113.884 22.7001 114.284 22.4135 114.777 22.2001C115.271 21.9868 115.871 21.8801 116.577 21.8801H122.477C122.637 21.8801 122.737 21.9068 122.777 21.9601C122.831 22.0001 122.857 22.1335 122.857 22.3601V24.6201C122.857 24.7935 122.831 24.9135 122.777 24.9801C122.724 25.0335 122.624 25.0601 122.477 25.0601H117.717C117.451 25.0601 117.237 25.1001 117.077 25.1801C116.917 25.2468 116.797 25.3335 116.717 25.4401C116.637 25.5468 116.584 25.6668 116.557 25.8001C116.531 25.9335 116.517 26.0668 116.517 26.2001V27.0401H121.877C122.037 27.0401 122.137 27.0668 122.177 27.1201C122.231 27.1735 122.257 27.3135 122.257 27.5401V29.6201C122.257 29.9268 122.131 30.0801 121.877 30.0801H116.517V31.5801C116.517 31.8335 116.544 32.0335 116.597 32.1801C116.664 32.3268 116.751 32.4401 116.857 32.5201C116.964 32.5868 117.091 32.6335 117.237 32.6601C117.384 32.6735 117.544 32.6801 117.717 32.6801H122.797C122.957 32.6801 123.057 32.7068 123.097 32.7601C123.151 32.8001 123.177 32.9335 123.177 33.1601V35.4201Z" fill="black"/>
<path d="M110.571 35.3601C110.598 35.4535 110.604 35.5668 110.591 35.7001C110.578 35.8201 110.451 35.8801 110.211 35.8801H107.451C107.238 35.8801 107.064 35.8668 106.931 35.8401C106.798 35.8001 106.698 35.6468 106.631 35.3801L105.831 32.0401C105.684 31.4668 105.498 31.0535 105.271 30.8001C105.044 30.5335 104.678 30.4001 104.171 30.4001H102.611V35.4801C102.611 35.6401 102.584 35.7468 102.531 35.8001C102.491 35.8535 102.358 35.8801 102.131 35.8801H99.2911C98.9844 35.8801 98.8311 35.7468 98.8311 35.4801V23.2001C98.8311 22.7868 98.9111 22.4668 99.0711 22.2401C99.2311 22.0001 99.5844 21.8801 100.131 21.8801H105.231C106.804 21.8801 107.991 22.2468 108.791 22.9801C109.591 23.7001 109.991 24.7001 109.991 25.9801C109.991 26.7001 109.818 27.3468 109.471 27.9201C109.138 28.4801 108.684 28.9001 108.111 29.1801V29.2201C108.578 29.4335 108.918 29.7468 109.131 30.1601C109.344 30.5735 109.511 31.0401 109.631 31.5601L110.571 35.3601ZM106.091 26.2801C106.091 26.0001 105.998 25.7401 105.811 25.5001C105.638 25.2601 105.331 25.1401 104.891 25.1401H102.611V27.4401H104.891C105.211 27.4401 105.491 27.3468 105.731 27.1601C105.971 26.9601 106.091 26.6668 106.091 26.2801Z" fill="black"/>
<path d="M164.095 10.3001V17.4601C164.095 17.6201 164.069 17.7335 164.015 17.8001C163.975 17.8535 163.842 17.8801 163.615 17.8801H160.775C160.469 17.8801 160.315 17.7401 160.315 17.4601V5.46013C160.315 4.83346 160.415 4.41346 160.615 4.20013C160.829 3.98679 161.215 3.88013 161.775 3.88013H162.815C163.015 3.88013 163.189 3.89346 163.335 3.92013C163.482 3.93346 163.615 3.97346 163.735 4.04013C163.869 4.09346 163.995 4.18013 164.115 4.30013C164.235 4.42013 164.369 4.58013 164.515 4.78013L167.375 9.06013L168.935 11.5001H169.075V4.30013C169.075 4.14013 169.095 4.03346 169.135 3.98013C169.189 3.91346 169.329 3.88013 169.555 3.88013H172.395C172.702 3.88013 172.855 4.02013 172.855 4.30013V16.3001C172.855 16.7535 172.762 17.1335 172.575 17.4401C172.389 17.7335 171.995 17.8801 171.395 17.8801H170.355C170.169 17.8801 169.995 17.8735 169.835 17.8601C169.689 17.8335 169.549 17.7935 169.415 17.7401C169.295 17.6735 169.169 17.5801 169.035 17.4601C168.915 17.3401 168.789 17.1801 168.655 16.9801L165.835 12.7801L164.235 10.3001H164.095Z" fill="black"/>
<path d="M154.019 15.1401H150.079L149.419 17.4401C149.365 17.5868 149.299 17.7001 149.219 17.7801C149.152 17.8468 149.005 17.8801 148.779 17.8801H145.839C145.705 17.8801 145.619 17.8468 145.579 17.7801C145.552 17.7001 145.552 17.6068 145.579 17.5001L149.519 5.12011C149.692 4.58677 149.905 4.24677 150.159 4.10011C150.412 3.94011 150.765 3.86011 151.219 3.86011H152.839C153.079 3.86011 153.285 3.87344 153.459 3.90011C153.645 3.91344 153.805 3.96011 153.939 4.04011C154.085 4.12011 154.212 4.24677 154.319 4.42011C154.439 4.58011 154.545 4.80677 154.639 5.10011L158.579 17.5001C158.605 17.5668 158.605 17.6468 158.579 17.7401C158.565 17.8334 158.479 17.8801 158.319 17.8801H155.299C155.139 17.8801 155.005 17.8601 154.899 17.8201C154.792 17.7801 154.719 17.6868 154.679 17.5401L154.019 15.1401ZM150.919 12.1801H153.199L152.819 10.6201L152.179 7.74011H152.019L151.339 10.6801L150.919 12.1801Z" fill="black"/>
<path d="M140.295 10.8601H140.175L139.155 13.1401L138.115 15.3601C137.968 15.6935 137.815 15.9268 137.655 16.0601C137.508 16.1801 137.288 16.2401 136.995 16.2401H135.655C135.321 16.2401 135.088 16.1801 134.955 16.0601C134.835 15.9268 134.695 15.6935 134.535 15.3601L133.635 13.5601L132.475 11.1001H132.355V17.5001C132.355 17.6868 132.321 17.8001 132.255 17.8401C132.188 17.8668 132.075 17.8801 131.915 17.8801H129.135C128.988 17.8801 128.875 17.8668 128.795 17.8401C128.715 17.8001 128.675 17.6868 128.675 17.5001V5.46013C128.675 4.83346 128.788 4.41346 129.015 4.20013C129.241 3.98679 129.608 3.88013 130.115 3.88013H131.655C132.081 3.88013 132.388 3.96013 132.575 4.12013C132.761 4.26679 132.941 4.51346 133.115 4.86013L134.715 8.18013L136.275 11.4601H136.355L137.915 8.22013L139.515 4.92013C139.688 4.57346 139.881 4.31346 140.095 4.14013C140.308 3.96679 140.668 3.88013 141.175 3.88013H142.415C142.628 3.88013 142.821 3.90013 142.995 3.94013C143.168 3.96679 143.315 4.03346 143.435 4.14013C143.568 4.23346 143.668 4.38013 143.735 4.58013C143.801 4.76679 143.835 5.01346 143.835 5.32013V17.5001C143.835 17.6868 143.801 17.8001 143.735 17.8401C143.668 17.8668 143.548 17.8801 143.375 17.8801H140.735C140.588 17.8801 140.475 17.8668 140.395 17.8401C140.328 17.8001 140.295 17.6868 140.295 17.5001V10.8601Z" fill="black"/>
<path d="M125.651 15.9401C125.651 16.3668 125.558 16.7535 125.371 17.1001C125.198 17.4335 124.851 17.6735 124.331 17.8201C124.064 17.9001 123.744 17.9601 123.371 18.0001C122.998 18.0401 122.631 18.0668 122.271 18.0801C121.911 18.1068 121.571 18.1201 121.251 18.1201C120.944 18.1335 120.718 18.1401 120.571 18.1401C119.384 18.1401 118.364 18.0535 117.511 17.8801C116.671 17.6935 115.978 17.3735 115.431 16.9201C114.884 16.4668 114.478 15.8668 114.211 15.1201C113.958 14.3601 113.831 13.4068 113.831 12.2601V4.30013C113.831 4.02013 113.984 3.88013 114.291 3.88013H117.131C117.358 3.88013 117.491 3.91346 117.531 3.98013C117.584 4.03346 117.611 4.14013 117.611 4.30013V12.6201C117.611 13.4068 117.798 13.9735 118.171 14.3201C118.544 14.6668 119.191 14.8401 120.111 14.8401C120.178 14.8401 120.291 14.8401 120.451 14.8401C120.611 14.8401 120.778 14.8335 120.951 14.8201C121.138 14.8068 121.318 14.8001 121.491 14.8001C121.664 14.7868 121.804 14.7668 121.911 14.7401V4.30013C121.911 4.02013 122.064 3.88013 122.371 3.88013H125.191C125.418 3.88013 125.551 3.91346 125.591 3.98013C125.644 4.03346 125.671 4.14013 125.671 4.30013L125.651 15.9401Z" fill="black"/>
<path d="M110.831 17.4601C110.831 17.6201 110.804 17.7335 110.751 17.8001C110.711 17.8535 110.578 17.8801 110.351 17.8801H107.511C107.204 17.8801 107.051 17.7401 107.051 17.4601V12.1801H102.611V17.4601C102.611 17.6201 102.584 17.7335 102.531 17.8001C102.491 17.8535 102.358 17.8801 102.131 17.8801H99.2911C98.9844 17.8801 98.8311 17.7401 98.8311 17.4601V4.30013C98.8311 4.02013 98.9844 3.88013 99.2911 3.88013H102.131C102.358 3.88013 102.491 3.91346 102.531 3.98013C102.584 4.03346 102.611 4.14013 102.611 4.30013V9.02013H107.051V4.30013C107.051 4.02013 107.204 3.88013 107.511 3.88013H110.351C110.578 3.88013 110.711 3.91346 110.751 3.98013C110.804 4.03346 110.831 4.14013 110.831 4.30013V17.4601Z" fill="black"/>
</svg>
