<svg width="21" height="21" viewBox="0 0 21 21" fill="none" xmlns="http://www.w3.org/2000/svg">
<path d="M6.52083 7.58333H10.6875M6.52083 10.5H13.1875M8.75729 15.5H14.1875C15.5876 15.5 16.2877 15.5 16.8225 15.2275C17.2929 14.9878 17.6753 14.6054 17.915 14.135C18.1875 13.6002 18.1875 12.9001 18.1875 11.5V7C18.1875 5.59987 18.1875 4.8998 17.915 4.36502C17.6753 3.89462 17.2929 3.51217 16.8225 3.27248C16.2877 3 15.5876 3 14.1875 3H7.1875C5.78737 3 5.0873 3 4.55252 3.27248C4.08212 3.51217 3.69967 3.89462 3.45998 4.36502C3.1875 4.8998 3.1875 5.59987 3.1875 7V17.4463C3.1875 17.8903 3.1875 18.1123 3.27852 18.2263C3.35769 18.3255 3.47772 18.3832 3.60462 18.3831C3.75052 18.3829 3.92389 18.2442 4.27063 17.9668L6.25851 16.3765C6.6646 16.0517 6.86764 15.8892 7.09374 15.7737C7.29433 15.6712 7.50786 15.5963 7.72851 15.551C7.97722 15.5 8.23725 15.5 8.75729 15.5Z" stroke="#EE0033" stroke-width="1.5" stroke-linecap="round" stroke-linejoin="round"/>
</svg>
