<svg width="40" height="48" viewBox="0 0 40 48" fill="none" xmlns="http://www.w3.org/2000/svg">
<g opacity="0.3">
<path opacity="0.3" d="M27.934 9.85C26.8406 9.84894 25.7922 9.41409 25.0191 8.64092C24.2459 7.86775 23.8111 6.8194 23.81 5.72598V0H5.38199C3.9546 0 2.58568 0.567046 1.57635 1.57637C0.567034 2.58569 0 3.95459 0 5.38198V37.826C0.00211967 39.252 0.570084 40.6189 1.57917 41.6265C2.58827 42.634 3.95598 43.2 5.38199 43.2H27.504C28.93 43.2 30.2977 42.634 31.3068 41.6265C32.3159 40.6189 32.8839 39.252 32.886 37.826V9.85H27.934Z" fill="#EE0033"/>
</g>
<path d="M32.8862 9.85H27.9342C26.8408 9.84894 25.7925 9.41409 25.0193 8.64092C24.2461 7.86775 23.8113 6.8194 23.8102 5.72598V0L32.8862 9.85Z" fill="#EE0033"/>
<path d="M26.1197 30.1699H5.47168C5.27277 30.1699 5.082 30.0908 4.94135 29.9502C4.80069 29.8095 4.72168 29.6188 4.72168 29.4199C4.72221 29.2213 4.80146 29.031 4.94205 28.8908C5.08265 28.7506 5.27311 28.6719 5.47168 28.6719H26.1197C26.3181 28.6719 26.5083 28.7506 26.6486 28.8909C26.7889 29.0312 26.8677 29.2215 26.8677 29.4199C26.8679 29.5183 26.8488 29.6158 26.8113 29.7067C26.7738 29.7977 26.7188 29.8804 26.6493 29.95C26.5798 30.0197 26.4973 30.075 26.4064 30.1127C26.3155 30.1505 26.2181 30.1699 26.1197 30.1699Z" fill="#EE0033"/>
<path d="M26.1197 21.7207H5.47168C5.27311 21.7207 5.08265 21.6419 4.94205 21.5017C4.80146 21.3614 4.72221 21.1712 4.72168 20.9727C4.72168 20.7737 4.80069 20.5829 4.94135 20.4423C5.082 20.3016 5.27277 20.2227 5.47168 20.2227H26.1197C26.2181 20.2227 26.3155 20.2421 26.4064 20.2798C26.4973 20.3175 26.5798 20.3728 26.6493 20.4424C26.7188 20.5121 26.7738 20.5948 26.8113 20.6858C26.8488 20.7768 26.8679 20.8743 26.8677 20.9727C26.8677 21.171 26.7889 21.3613 26.6486 21.5016C26.5083 21.6418 26.3181 21.7207 26.1197 21.7207Z" fill="#EE0033"/>
<path d="M26.1197 25.9433H5.47168C5.27277 25.9433 5.082 25.8643 4.94135 25.7236C4.80069 25.583 4.72168 25.3922 4.72168 25.1933C4.72221 24.9947 4.80146 24.8045 4.94205 24.6643C5.08265 24.524 5.27311 24.4453 5.47168 24.4453H26.1197C26.3181 24.4453 26.5083 24.5241 26.6486 24.6644C26.7889 24.8047 26.8677 24.9949 26.8677 25.1933C26.8679 25.2917 26.8488 25.3892 26.8113 25.4802C26.7738 25.5712 26.7188 25.6539 26.6493 25.7235C26.5798 25.7932 26.4973 25.8485 26.4064 25.8862C26.3155 25.9239 26.2181 25.9433 26.1197 25.9433Z" fill="#EE0033"/>
<path d="M17.9757 17.4941H5.47168C5.27311 17.4941 5.08265 17.4154 4.94205 17.2751C4.80146 17.1349 4.72221 16.9447 4.72168 16.7461C4.72168 16.5472 4.80069 16.3564 4.94135 16.2158C5.082 16.0751 5.27277 15.9961 5.47168 15.9961H17.9757C18.1742 15.9966 18.3645 16.0759 18.5047 16.2165C18.6449 16.357 18.7237 16.5475 18.7237 16.7461C18.7232 16.9443 18.6442 17.1343 18.504 17.2744C18.3639 17.4146 18.1739 17.4936 17.9757 17.4941Z" fill="#EE0033"/>
<path d="M17.9757 13.2714H5.47168C5.27311 13.2714 5.08265 13.1927 4.94205 13.0524C4.80146 12.9122 4.72221 12.722 4.72168 12.5234C4.72168 12.3245 4.80069 12.1337 4.94135 11.9931C5.082 11.8524 5.27277 11.7734 5.47168 11.7734H17.9757C18.1742 11.774 18.3645 11.8532 18.5047 11.9938C18.6449 12.1344 18.7237 12.3249 18.7237 12.5234C18.7232 12.7217 18.6442 12.9116 18.504 13.0518C18.3639 13.1919 18.1739 13.2709 17.9757 13.2714Z" fill="#EE0033"/>
<path d="M36.7877 34.1211H11.7797C10.0057 34.1211 8.56769 35.5592 8.56769 37.3331V44.7891C8.56769 46.563 10.0057 48.0011 11.7797 48.0011H36.7877C38.5616 48.0011 39.9997 46.563 39.9997 44.7891V37.3331C39.9997 35.5592 38.5616 34.1211 36.7877 34.1211Z" fill="#EE0033"/>
<path d="M16.7718 42.6758V44.1298H15.2678V42.6758H16.7718Z" fill="white"/>
<path d="M18.9841 42.0212V44.1312H17.5301V38.1172H19.8861C20.6001 38.1172 21.1461 38.2952 21.5201 38.6492C21.7093 38.8351 21.8571 39.059 21.9536 39.3062C22.0501 39.5534 22.0932 39.8181 22.0801 40.0832C22.0874 40.4328 22.0011 40.7781 21.8301 41.0832C21.6555 41.3814 21.3967 41.6215 21.0861 41.7732C20.7115 41.9502 20.3002 42.0359 19.8861 42.0232L18.9841 42.0212ZM20.6001 40.0832C20.6001 39.5498 20.3081 39.2832 19.7241 39.2832H18.9841V40.8492H19.7241C20.3081 40.8545 20.6001 40.5992 20.6001 40.0832Z" fill="white"/>
<path d="M27.8262 42.6784C27.5758 43.1331 27.1975 43.5045 26.7382 43.7464C26.2214 44.011 25.6467 44.1423 25.0662 44.1284H22.7962V38.1144H25.0662C25.6471 38.0998 26.2227 38.2282 26.7422 38.4884C27.2003 38.7251 27.5776 39.0927 27.8262 39.5444C28.0864 40.0239 28.2174 40.5629 28.2062 41.1084C28.2171 41.6557 28.0862 42.1966 27.8262 42.6784ZM26.2622 42.3764C26.4248 42.2095 26.5507 42.0105 26.632 41.7922C26.7133 41.5738 26.7481 41.341 26.7342 41.1084C26.7482 40.8761 26.7134 40.6435 26.6321 40.4254C26.5508 40.2074 26.4248 40.0088 26.2622 39.8424C25.8984 39.5232 25.4233 39.3607 24.9402 39.3904H24.2502V42.8264H24.9402C25.4229 42.8557 25.8977 42.6941 26.2622 42.3764Z" fill="white"/>
<path d="M32.952 38.1172V39.2752H30.486V40.5932H32.39V41.6992H30.486V44.1312H29.03V38.1172H32.952Z" fill="white"/>
<path d="M25.7539 11.7734H22.2179C21.6015 11.7734 21.1019 12.2731 21.1019 12.8894V16.4254C21.1019 17.0418 21.6015 17.5414 22.2179 17.5414H25.7539C26.3702 17.5414 26.8699 17.0418 26.8699 16.4254V12.8894C26.8699 12.2731 26.3702 11.7734 25.7539 11.7734Z" fill="#EE0033"/>
</svg>
