<svg width="18" height="20" viewBox="0 0 18 20" fill="none" xmlns="http://www.w3.org/2000/svg">
<g opacity="0.3">
<path opacity="0.3" d="M12.372 4.10399C11.9073 4.10355 11.4618 3.92237 11.1332 3.60023C10.8046 3.27809 10.6198 2.8413 10.6193 2.38572V0H2.78736C2.18072 0 1.59892 0.236259 1.16996 0.656792C0.740991 1.07732 0.5 1.64768 0.5 2.2424V15.7602C0.500901 16.3543 0.742287 16.9238 1.17115 17.3436C1.60002 17.7634 2.18131 17.9992 2.78736 17.9992H12.1893C12.7953 17.9992 13.3766 17.7634 13.8055 17.3436C14.2344 16.9238 14.4757 16.3543 14.4767 15.7602V4.10399H12.372Z" fill="#EE0033"/>
</g>
<path d="M14.477 4.10399H12.3723C11.9076 4.10355 11.4621 3.92237 11.1335 3.60023C10.8049 3.27809 10.6201 2.8413 10.6196 2.38572V0L14.477 4.10399Z" fill="#EE0033"/>
<path d="M11.6011 12.5695H2.82559C2.74105 12.5695 2.65997 12.5365 2.60019 12.4779C2.54042 12.4193 2.50684 12.3398 2.50684 12.257C2.50706 12.1742 2.54074 12.095 2.6005 12.0365C2.66025 11.9781 2.7412 11.9453 2.82559 11.9453H11.6011C11.6854 11.9453 11.7662 11.9781 11.8258 12.0366C11.8855 12.095 11.919 12.1743 11.919 12.257C11.9191 12.298 11.9109 12.3386 11.895 12.3765C11.8791 12.4144 11.8557 12.4488 11.8261 12.4779C11.7966 12.5069 11.7615 12.5299 11.7229 12.5456C11.6843 12.5614 11.6429 12.5695 11.6011 12.5695Z" fill="#EE0033"/>
<path d="M11.6011 9.04992H2.82559C2.7412 9.04992 2.66025 9.0171 2.6005 8.95868C2.54074 8.90025 2.50706 8.821 2.50684 8.73827C2.50684 8.65539 2.54042 8.57589 2.60019 8.51729C2.65997 8.45869 2.74105 8.42578 2.82559 8.42578H11.6011C11.6429 8.42578 11.6843 8.43387 11.7229 8.44958C11.7615 8.4653 11.7966 8.48832 11.8261 8.51735C11.8557 8.54638 11.8791 8.58084 11.895 8.61875C11.9109 8.65665 11.9191 8.69727 11.919 8.73827C11.919 8.82092 11.8855 8.90019 11.8258 8.95864C11.7662 9.01708 11.6854 9.04992 11.6011 9.04992Z" fill="#EE0033"/>
<path d="M11.6011 10.8077H2.82559C2.74105 10.8077 2.65997 10.7748 2.60019 10.7162C2.54042 10.6576 2.50684 10.5781 2.50684 10.4952C2.50706 10.4125 2.54074 10.3332 2.6005 10.2748C2.66025 10.2164 2.7412 10.1836 2.82559 10.1836H11.6011C11.6854 10.1836 11.7662 10.2164 11.8258 10.2749C11.8855 10.3333 11.919 10.4126 11.919 10.4952C11.9191 10.5362 11.9109 10.5769 11.895 10.6148C11.8791 10.6527 11.8557 10.6871 11.8261 10.7162C11.7966 10.7452 11.7615 10.7682 11.7229 10.7839C11.6843 10.7996 11.6429 10.8077 11.6011 10.8077Z" fill="#EE0033"/>
<path d="M8.13983 7.2882H2.82559C2.7412 7.2882 2.66025 7.2554 2.6005 7.19698C2.54074 7.13856 2.50706 7.05928 2.50684 6.97655C2.50684 6.89367 2.54042 6.81419 2.60019 6.75559C2.65997 6.69699 2.74105 6.66406 2.82559 6.66406H8.13983C8.22422 6.66428 8.30508 6.6973 8.36467 6.75588C8.42427 6.81445 8.45773 6.89382 8.45773 6.97655C8.45751 7.05914 8.42394 7.13827 8.36437 7.19667C8.3048 7.25507 8.22407 7.28798 8.13983 7.2882Z" fill="#EE0033"/>
<path d="M8.13983 5.53039H2.82559C2.7412 5.53039 2.66025 5.49757 2.6005 5.43915C2.54074 5.38072 2.50706 5.30147 2.50684 5.21874C2.50684 5.13586 2.54042 5.05636 2.60019 4.99776C2.65997 4.93916 2.74105 4.90625 2.82559 4.90625H8.13983C8.22422 4.90647 8.30508 4.93948 8.36467 4.99806C8.42427 5.05664 8.45773 5.136 8.45773 5.21874C8.45751 5.30132 8.42394 5.38046 8.36437 5.43886C8.3048 5.49726 8.22407 5.53017 8.13983 5.53039Z" fill="#EE0033"/>
<path d="M16.1347 14.2188H5.50622C4.75229 14.2188 4.14111 14.8179 4.14111 15.557V18.6636C4.14111 19.4027 4.75229 20.0018 5.50622 20.0018H16.1347C16.8886 20.0018 17.4998 19.4027 17.4998 18.6636V15.557C17.4998 14.8179 16.8886 14.2188 16.1347 14.2188Z" fill="#EE0033"/>
<path d="M7.62798 17.7812V18.3871H6.98877V17.7812H7.62798Z" fill="white"/>
<path d="M8.56815 17.5094V18.3885H7.9502V15.8828H8.95151C9.25496 15.8828 9.48701 15.957 9.64596 16.1045C9.72639 16.1819 9.78918 16.2752 9.8302 16.3782C9.87122 16.4812 9.88954 16.5915 9.88396 16.7019C9.88705 16.8476 9.85037 16.9915 9.77771 17.1186C9.7035 17.2429 9.5935 17.3429 9.46151 17.4061C9.3023 17.4799 9.12752 17.5155 8.95151 17.5102L8.56815 17.5094ZM9.25496 16.7019C9.25496 16.4797 9.13086 16.3686 8.88265 16.3686H8.56815V17.0211H8.88265C9.13086 17.0233 9.25496 16.9169 9.25496 16.7019Z" fill="white"/>
<path d="M12.3262 17.7809C12.2198 17.9704 12.0591 18.1251 11.8638 18.2259C11.6442 18.3362 11.3999 18.3909 11.1532 18.3851H10.1885V15.8794H11.1532C11.4001 15.8733 11.6447 15.9268 11.8655 16.0352C12.0602 16.1338 12.2206 16.287 12.3262 16.4752C12.4368 16.675 12.4925 16.8995 12.4877 17.1268C12.4924 17.3549 12.4367 17.5802 12.3262 17.7809ZM11.6615 17.6551C11.7306 17.5856 11.7842 17.5027 11.8187 17.4117C11.8533 17.3207 11.868 17.2237 11.8621 17.1268C11.8681 17.03 11.8533 16.9331 11.8188 16.8423C11.7842 16.7514 11.7307 16.6687 11.6615 16.5993C11.5069 16.4663 11.305 16.3987 11.0997 16.411H10.8064V17.8426H11.0997C11.3048 17.8548 11.5066 17.7875 11.6615 17.6551Z" fill="white"/>
<path d="M14.5048 15.8828V16.3653H13.4567V16.9144H14.2659V17.3752H13.4567V18.3885H12.8379V15.8828H14.5048Z" fill="white"/>
<path d="M11.4454 4.90625H9.94256C9.68061 4.90625 9.46826 5.11443 9.46826 5.37123V6.8445C9.46826 7.1013 9.68061 7.30948 9.94256 7.30948H11.4454C11.7073 7.30948 11.9197 7.1013 11.9197 6.8445V5.37123C11.9197 5.11443 11.7073 4.90625 11.4454 4.90625Z" fill="#EE0033"/>
</svg>
