<svg width="20" height="20" viewBox="0 0 20 20" fill="none" xmlns="http://www.w3.org/2000/svg">
<path d="M12.4998 1.66602V2.83268C12.4998 3.29939 12.4998 3.53275 12.409 3.71101C12.3291 3.86781 12.2016 3.99529 12.0448 4.07519C11.8666 4.16602 11.6332 4.16602 11.1665 4.16602H8.83317C8.36646 4.16602 8.1331 4.16602 7.95485 4.07519C7.79804 3.99529 7.67056 3.86781 7.59067 3.71101C7.49984 3.53275 7.49984 3.29939 7.49984 2.83268V1.66602M6.83317 18.3327H13.1665C14.0999 18.3327 14.5666 18.3327 14.9232 18.151C15.2368 17.9912 15.4917 17.7363 15.6515 17.4227C15.8332 17.0661 15.8332 16.5994 15.8332 15.666V4.33268C15.8332 3.39926 15.8332 2.93255 15.6515 2.57603C15.4917 2.26243 15.2368 2.00746 14.9232 1.84767C14.5666 1.66602 14.0999 1.66602 13.1665 1.66602H6.83317C5.89975 1.66602 5.43304 1.66602 5.07652 1.84767C4.76292 2.00746 4.50795 2.26243 4.34816 2.57603C4.1665 2.93255 4.1665 3.39926 4.1665 4.33268V15.666C4.1665 16.5994 4.1665 17.0661 4.34816 17.4227C4.50795 17.7363 4.76292 17.9912 5.07652 18.151C5.43304 18.3327 5.89975 18.3327 6.83317 18.3327Z" stroke="#4C515B" stroke-width="1.5" stroke-linecap="round" stroke-linejoin="round"/>
</svg>
