<svg width="21" height="21" viewBox="0 0 21 21" fill="none" xmlns="http://www.w3.org/2000/svg">
<path d="M2.479 10.9167C2.479 9.99617 3.2252 9.25 4.14567 9.25C5.52638 9.25 6.64567 10.3692 6.64567 11.75V15.0833C6.64567 16.4641 5.52638 17.5833 4.14567 17.5833C3.2252 17.5833 2.479 16.8372 2.479 15.9167V10.9167Z" stroke="#EE0033" stroke-width="2" stroke-linecap="round" stroke-linejoin="round"/>
<path d="M13.7116 7.00652L13.4897 7.72325C13.3078 8.31056 13.2169 8.60421 13.2868 8.83614C13.3434 9.02372 13.4676 9.18547 13.6368 9.29189C13.846 9.42339 14.1624 9.42339 14.7952 9.42339H15.1319C17.2737 9.42339 18.3445 9.42339 18.8503 10.0574C18.9081 10.1298 18.9595 10.2069 19.004 10.2877C19.3931 10.9947 18.9507 11.9472 18.066 13.8522C17.2541 15.6004 16.8481 16.4745 16.0943 16.989C16.0214 17.0387 15.9464 17.0857 15.8696 17.1297C15.076 17.5846 14.0928 17.5846 12.1263 17.5846H11.6998C9.31741 17.5846 8.12623 17.5846 7.38611 16.8676C6.646 16.1504 6.646 14.9962 6.646 12.6879V11.8766C6.646 10.6635 6.646 10.057 6.86128 9.5018C7.07656 8.94664 7.48879 8.49017 8.31324 7.57724L11.7227 3.80177C11.8082 3.70709 11.851 3.65974 11.8887 3.62693C12.2406 3.3207 12.7837 3.35517 13.0913 3.70326C13.1243 3.74055 13.1603 3.79289 13.2323 3.89759C13.345 4.06134 13.4013 4.14323 13.4505 4.22434C13.89 4.95058 14.023 5.81327 13.8217 6.63226C13.7992 6.72374 13.77 6.81805 13.7116 7.00652Z" stroke="#EE0033" stroke-width="2" stroke-linecap="round" stroke-linejoin="round"/>
</svg>
