<svg width="20" height="21" viewBox="0 0 20 21" fill="none" xmlns="http://www.w3.org/2000/svg">
<path d="M4.43021 16.532C4.93714 15.3377 6.12073 14.5 7.49996 14.5H12.5C13.8792 14.5 15.0628 15.3377 15.5697 16.532M13.3333 8.25C13.3333 10.0909 11.8409 11.5833 9.99996 11.5833C8.15901 11.5833 6.66663 10.0909 6.66663 8.25C6.66663 6.40905 8.15901 4.91667 9.99996 4.91667C11.8409 4.91667 13.3333 6.40905 13.3333 8.25ZM18.3333 10.3333C18.3333 14.9357 14.6023 18.6667 9.99996 18.6667C5.39759 18.6667 1.66663 14.9357 1.66663 10.3333C1.66663 5.73096 5.39759 2 9.99996 2C14.6023 2 18.3333 5.73096 18.3333 10.3333Z" stroke="#EE0033" stroke-width="1.5" stroke-linecap="round" stroke-linejoin="round"/>
</svg>
