<svg width="20" height="21" viewBox="0 0 20 21" fill="none" xmlns="http://www.w3.org/2000/svg">
<path d="M18.3334 17.833V16.1663C18.3334 14.6131 17.271 13.3081 15.8334 12.938M12.9167 3.07531C14.1383 3.5698 15 4.76743 15 6.16634C15 7.56525 14.1383 8.76289 12.9167 9.25738M14.1667 17.833C14.1667 16.2799 14.1667 15.5033 13.913 14.8907C13.5746 14.074 12.9257 13.4251 12.109 13.0867C11.4964 12.833 10.7198 12.833 9.16669 12.833H6.66669C5.11355 12.833 4.33698 12.833 3.72441 13.0867C2.90765 13.4251 2.25874 14.074 1.92042 14.8907C1.66669 15.5033 1.66669 16.2799 1.66669 17.833M11.25 6.16634C11.25 8.00729 9.75764 9.49967 7.91669 9.49967C6.07574 9.49967 4.58335 8.00729 4.58335 6.16634C4.58335 4.32539 6.07574 2.83301 7.91669 2.83301C9.75764 2.83301 11.25 4.32539 11.25 6.16634Z" stroke="#EE0033" stroke-width="1.5" stroke-linecap="round" stroke-linejoin="round"/>
</svg>
