<svg width="40" height="48" viewBox="0 0 40 48" fill="none" xmlns="http://www.w3.org/2000/svg">
<path d="M27.9341 9.8495C26.8406 9.84844 25.7923 9.41361 25.0191 8.64048C24.246 7.86735 23.8111 6.81906 23.81 5.72569V0H5.38204C3.95464 0 2.58569 0.567018 1.57637 1.57629C0.567047 2.58556 0 3.95439 0 5.38171V37.8241C0 39.2514 0.567047 40.6203 1.57637 41.6295C2.58569 42.6388 3.95464 43.2058 5.38204 43.2058H27.502C28.9294 43.2058 30.2984 42.6388 31.3077 41.6295C32.317 40.6203 32.8841 39.2514 32.8841 37.8241V9.8495H27.9341Z" fill="white"/>
<path d="M32.8846 9.8495H27.9346C26.8411 9.84844 25.7928 9.41361 25.0196 8.64048C24.2465 7.86735 23.8116 6.81906 23.8105 5.72569V0L32.8846 9.8495Z" fill="#E4E6E9"/>
<path d="M36.7874 34.1172H11.7794C10.0055 34.1172 8.56738 35.5552 8.56738 37.329V44.7846C8.56738 46.5585 10.0055 47.9965 11.7794 47.9965H36.7874C38.5614 47.9965 39.9994 46.5585 39.9994 44.7846V37.329C39.9994 35.5552 38.5614 34.1172 36.7874 34.1172Z" fill="#16B364"/>
<path d="M17.4855 42.6719V44.1259H15.9795V42.6719H17.4855Z" fill="white"/>
<path d="M21.8925 44.1308L20.6266 42.259L19.5366 44.1308H17.8706L19.7925 41.035L17.8105 38.1172H19.5366L20.7706 39.9291L21.8346 38.1172H23.4925L21.5965 41.145L23.6206 44.1308H21.8925Z" fill="white"/>
<path d="M28.2607 43.3146C28.0881 43.5907 27.8405 43.812 27.5467 43.9525C27.1891 44.12 26.7974 44.2014 26.4027 44.1905C25.8073 44.2154 25.2205 44.0416 24.7347 43.6965C24.5198 43.5352 24.344 43.3276 24.2204 43.0891C24.0968 42.8505 24.0285 42.5872 24.0207 42.3186H25.5687C25.5798 42.5212 25.6661 42.7123 25.8107 42.8546C25.9547 42.9888 26.1459 43.0607 26.3427 43.0546C26.4229 43.0593 26.5032 43.0481 26.5791 43.0217C26.6549 42.9952 26.7248 42.9541 26.7847 42.9006C26.8381 42.8488 26.88 42.7865 26.9079 42.7177C26.9358 42.6488 26.949 42.5749 26.9467 42.5006C26.9487 42.4301 26.9364 42.3599 26.9107 42.2943C26.8849 42.2287 26.8461 42.1689 26.7967 42.1186C26.6908 42.0115 26.5652 41.9259 26.4267 41.8666C26.2814 41.8026 26.0774 41.7246 25.8147 41.6326C25.496 41.5276 25.1846 41.4013 24.8827 41.2547C24.6346 41.1268 24.4217 40.94 24.2627 40.7107C24.0782 40.433 23.9871 40.1037 24.0027 39.7707C23.9955 39.4408 24.0905 39.1166 24.2747 38.8428C24.4639 38.5752 24.7255 38.3671 25.0287 38.2428C25.3783 38.1006 25.7535 38.0325 26.1307 38.0428C26.7034 38.0112 27.2692 38.1803 27.7307 38.5208C27.9272 38.6806 28.0881 38.8796 28.2031 39.1052C28.3181 39.3308 28.3847 39.5779 28.3987 39.8307H26.8247C26.8072 39.6537 26.7312 39.4877 26.6087 39.3588C26.5462 39.2988 26.472 39.2523 26.3909 39.222C26.3097 39.1918 26.2232 39.1784 26.1367 39.1827C25.9867 39.1759 25.8394 39.2243 25.7227 39.3188C25.6689 39.3698 25.6269 39.4321 25.6 39.5013C25.573 39.5704 25.5617 39.6447 25.5667 39.7187C25.5636 39.8532 25.614 39.9833 25.7067 40.0807C25.8062 40.1846 25.926 40.267 26.0587 40.3227C26.2007 40.3847 26.4047 40.4647 26.6707 40.5607C26.9952 40.6664 27.3114 40.7961 27.6167 40.9487C27.8661 41.0832 28.081 41.2734 28.2447 41.5046C28.4313 41.7867 28.5238 42.1207 28.5087 42.4586C28.506 42.7612 28.4202 43.0573 28.2607 43.3146Z" fill="white"/>
<path d="M30.7665 43.0169H32.7145V44.1308H29.3145V38.1172H30.7705L30.7665 43.0169Z" fill="white"/>
<path d="M23.7776 30.1658H9.11358C7.84358 30.1658 6.80957 28.9019 6.80957 27.346V16.7085C6.80957 15.1546 7.84358 13.8906 9.11358 13.8906H23.7836C25.0516 13.8906 26.0856 15.1546 26.0856 16.7085V27.346C26.0796 28.9019 25.0456 30.1658 23.7776 30.1658ZM9.11358 15.3305C8.49158 15.3305 7.9876 15.9485 7.9876 16.7085V27.346C7.9876 28.1059 8.49158 28.7239 9.11358 28.7239H23.7836C24.4036 28.7239 24.9076 28.1059 24.9076 27.346V16.7085C24.9076 15.9485 24.4036 15.3305 23.7836 15.3305H9.11358Z" fill="#16B364"/>
<path d="M25.4925 23.7578H7.39453V25.1998H25.4925V23.7578Z" fill="#16B364"/>
<path d="M25.4925 18.8203H7.39453V20.2623H25.4925V18.8203Z" fill="#16B364"/>
<path d="M20.8561 14.6094H19.4141V29.4426H20.8561V14.6094Z" fill="#16B364"/>
<path d="M13.4703 14.6094H12.0283V29.4426H13.4703V14.6094Z" fill="#16B364"/>
</svg>
